<?xml version="1.0" encoding="utf-8"?>
<!-- Generated by IcoMoon.io -->
<svg version="1.1" xmlns="http://www.w3.org/2000/svg" xmlns:xlink="http://www.w3.org/1999/xlink" width="1040" height="50" viewBox="0 0 1040 50">
<svg id=".brand-webpack" width="50" height="50" viewBox="0 0 50 50" x="0" y="0">
<path fill="#8dd6f9" d="M43.783 37.75l-18.051 10.166v-7.918l11.247-6.16 6.804 3.912zM45.017 36.637v-21.261l-6.606 3.796v13.665l6.606 3.8zM6.095 37.75l18.051 10.166v-7.918l-11.247-6.16-6.804 3.912zM4.86 36.637v-21.261l6.606 3.796v13.665l-6.606 3.8zM5.633 14l18.513-10.428v7.656l-11.951 6.547-6.563-3.774zM44.245 14l-18.514-10.428v7.656l11.951 6.547 6.563-3.774zM24.147 38.198l-11.096-6.074v-12.036l11.096 6.379v11.731zM25.731 38.198l11.096-6.074v-12.036l-11.096 6.379v11.731zM13.802 18.695l11.139-6.1 11.139 6.1-11.139 6.405-11.139-6.405z"></path>
</svg>
<svg id=".brand-mongodb" width="50" height="50" viewBox="0 0 50 50" x="66" y="0">
<path fill="#47a248" d="M35.792 19.829c-2.631-11.583-8.837-15.39-9.504-16.846-0.733-1.027-1.527-2.983-1.527-2.983-0.004 0.040-0.008 0.065-0.010 0.102v0.027h-0.002c-0.004 0.031-0.006 0.052-0.008 0.081v0.031h-0.004c0 0.021-0.004 0.037-0.004 0.054v0.054h-0.006c-0.002 0.017-0.002 0.037-0.006 0.052v0.044h-0.004c0 0.015 0 0.031-0.004 0.044v0.042h-0.004c0 0.021-0.002 0.046-0.004 0.067v0.004c-0.006 0.035-0.012 0.071-0.019 0.104v0.017h-0.004c-0.002 0.008-0.006 0.017-0.006 0.025v0.035h-0.006v0.046h-0.010v0.038h-0.010v0.044h-0.008v0.040h-0.008v0.035h-0.012v0.029h-0.008v0.038h-0.008v0.029h-0.010v0.027h-0.006v0.031h-0.008c-0.002 0.002-0.002 0.006-0.002 0.008v0.021h-0.006c-0.002 0.004-0.002 0.008-0.002 0.012v0.012h-0.004c-0.002 0.006-0.004 0.017-0.004 0.021-0.006 0.015-0.015 0.029-0.021 0.044v0.004c-0.004 0.004-0.008 0.010-0.010 0.015v0.017h-0.008v0.017h-0.010v0.017h-0.006v0.021h-0.012v0.029h-0.008v0.008h-0.008v0.017h-0.008v0.023h-0.008v0.017h-0.012v0.023h-0.008v0.017h-0.010v0.017h-0.006v0.021h-0.010v0.017h-0.008v0.012h-0.008v0.017h-0.012v0.019h-0.008v0.012h-0.010v0.017h-0.008v0.023h-0.010v0.008h-0.006v0.017h-0.012v0.008h-0.008v0.021h-0.008v0.008h-0.008v0.017h-0.010v0.012h-0.006l-0.004 0.008v0.008h-0.004c-0.002 0.004-0.004 0.004-0.004 0.008v0.002h-0.002c-0.002 0.006-0.004 0.010-0.008 0.015v0.006h-0.002c-0.010 0.012-0.017 0.025-0.025 0.038v0.002c-0.004 0.004-0.015 0.012-0.019 0.021v0.004h-0.002c-0.002 0.002-0.006 0.004-0.006 0.006v0.006h-0.004l-0.006 0.006v0.002h-0.002c0 0.002-0.004 0.004-0.006 0.008v0.008h-0.006l-0.004 0.004v0.004h-0.004c0 0.004-0.004 0.004-0.004 0.006v0.006h-0.008c0 0.002-0.002 0.004-0.004 0.006v0.012h-0.006v0.008h-0.008v0.012h-0.008v0.017h-0.010v-0.017h-0.010v0.008h-0.008v0.012h-0.010v0.017h-0.010v0.008h-0.008v0.012h-0.008v0.008h-0.008v0.017h-0.012v0.008h-0.008v0.013h-0.010v0.008h-0.008v0.010h-0.010v0.021h-0.004v0.008h-0.012v0.010h-0.008v0.004h-0.008v0.008h-0.010v0.021h-0.008v0.008h-0.010v0.008h-0.008v0.012h-0.010v0.008h-0.010v0.008h-0.008v0.008h-0.008v0.021h-0.008v0.010h-0.012v0.008h-0.008v0.008h-0.010v0.013h-0.008v0.008h-0.010v0.015h-0.008v0.008h-0.012v0.013h-0.004v0.008h-0.008v0.008h-0.010v0.008h-0.008v0.013h-0.010v0.008h-0.006c-0.002 0.002-0.002 0.004-0.002 0.004v0.004h-0.004l-0.008 0.008s-0.004 0.004-0.008 0.006v0.013h-0.008v0.010h-0.008v0.008h-0.008v0.008h-0.006l-0.006 0.006v0.006h-0.004l-0.004 0.004v0.006h-0.004c-0.010 0.013-0.015 0.021-0.029 0.033-0.004 0.004-0.017 0.015-0.025 0.021-0.025 0.017-0.056 0.044-0.081 0.067-0.017 0.010-0.033 0.025-0.046 0.035v0.002h-0.002c-0.033 0.027-0.065 0.052-0.102 0.081v0.002c-0.050 0.042-0.098 0.081-0.154 0.129v-0.002h-0.004c-0.119 0.098-0.244 0.208-0.387 0.331v0.002h-0.002c-0.352 0.308-0.771 0.704-1.24 1.183l-0.040 0.040c-2.833 2.931-7.298 9.040-7.769 18.91-0.042 0.817-0.033 1.61 0.012 2.383v0.019c0.227 3.89 1.448 7.21 2.975 9.908v0.002c0.608 1.075 1.265 2.052 1.929 2.927v0.002c2.296 3.031 4.64 4.827 5.238 5.263 0.919 2.131 0.833 5.79 0.833 5.79l1.342 0.448s-0.273-3.544 0.11-5.254c0.119-0.535 0.4-0.992 0.727-1.379 0.221-0.156 0.875-0.627 1.66-1.344 0.038-0.040 0.058-0.075 0.092-0.112 3.169-2.954 9.087-10.229 7.058-22.081z"></path>
</svg>
<svg id=".brand-git" width="50" height="50" viewBox="0 0 50 50" x="132" y="0">
<path fill="#f05032" d="M49.054 22.771l-21.831-21.829c-1.258-1.256-3.296-1.256-4.558 0l-4.523 4.531 5.75 5.75c1.344-0.448 2.873-0.146 3.935 0.919 1.075 1.073 1.371 2.621 0.912 3.958l5.538 5.542c1.344-0.465 2.89-0.162 3.958 0.906 1.502 1.5 1.502 3.925 0 5.425-1.498 1.498-3.919 1.498-5.417 0-1.123-1.127-1.404-2.785-0.842-4.158l-5.185-5.158v13.594c0.367 0.179 0.712 0.423 1.017 0.725 1.485 1.502 1.485 3.923 0 5.417-1.498 1.502-3.935 1.502-5.435 0-1.498-1.498-1.498-3.915 0-5.413 0.379-0.375 0.806-0.658 1.26-0.846v-13.727c-0.452-0.19-0.883-0.462-1.25-0.835-1.135-1.135-1.408-2.796-0.825-4.185l-5.65-5.677-14.971 14.96c-1.25 1.26-1.25 3.3 0 4.56l21.833 21.827c1.258 1.258 3.296 1.258 4.554 0l21.729-21.729c1.26-1.256 1.26-3.296 0-4.556z"></path>
</svg>
<svg id=".brand-heroku" width="50" height="50" viewBox="0 0 50 50" x="198" y="0">
<path fill="#430098" d="M42.938 0h-35.875c-2.502 0-4.5 2-4.5 4.5v41.002c0 2.496 1.998 4.498 4.5 4.498h35.875c2.5 0 4.498-2.002 4.498-4.498v-41.002c0.002-2.5-1.996-4.5-4.498-4.5zM44.938 45.502c0 1.123-0.877 2-2 2h-35.875c-1.125 0-2-0.877-2-2v-41.002c0-1.125 0.875-2.002 2-2.002h35.875c1.123 0 2 0.877 2 2.002v41.002zM13.813 42.498l5.625-4.998-5.625-5v9.998zM34.063 22.25c-0.998-1-2.873-2.25-5.998-2.25-3.377 0-6.877 0.877-9.375 1.75v-14.25h-5v21.625l3.5-1.625s5.75-2.625 10.75-2.625c2.5 0 3.125 1.375 3.125 2.625v15h5v-15c0.123-0.373 0.123-3.127-2.002-5.25zM27.437 15.625h5c2.25-2.625 3.375-5.252 3.75-8.125h-4.998c-0.502 2.873-1.752 5.5-3.752 8.125z"></path>
</svg>
<svg id=".brand-eslint" width="50" height="50" viewBox="0 0 50 50" x="264" y="0">
<path fill="#4b32c3" d="M15.119 19.025l9.498-5.483c0.11-0.064 0.242-0.102 0.383-0.102s0.273 0.038 0.387 0.104l-0.004-0.002 9.498 5.483c0.231 0.136 0.383 0.383 0.383 0.665 0 0.001 0 0.001 0 0.002v-0 10.965c-0.001 0.282-0.153 0.529-0.38 0.663l-0.004 0.002-9.498 5.483c-0.11 0.064-0.242 0.102-0.383 0.102s-0.273-0.038-0.387-0.104l0.004 0.002-9.498-5.483c-0.231-0.136-0.383-0.383-0.383-0.665 0-0.001 0-0.001 0-0.002v0-10.962c0-0 0-0 0-0 0-0.283 0.152-0.53 0.38-0.664l0.004-0.002zM49.692 24.021l-11.346-19.74c-0.412-0.715-1.175-1.242-2-1.242h-22.69c-0.825 0-1.588 0.527-2 1.242l-11.346 19.696c-0.194 0.334-0.309 0.736-0.309 1.164s0.115 0.829 0.315 1.175l-0.006-0.011 11.348 19.579c0.41 0.712 1.173 1.077 1.998 1.077h22.694c0.823 0 1.583-0.354 1.998-1.067l11.346-19.61c0.194-0.324 0.309-0.714 0.309-1.131s-0.115-0.808-0.314-1.141l0.006 0.010zM40.298 33.513c-0.008 0.302-0.176 0.562-0.421 0.702l-0.004 0.002-14.456 8.337c-0.117 0.068-0.258 0.108-0.408 0.108s-0.291-0.040-0.412-0.111l0.004 0.002-14.465-8.337c-0.25-0.141-0.418-0.402-0.427-0.703l-0-0.001v-16.679c0-0.292 0.173-0.56 0.425-0.704l14.45-8.338c0.25-0.146 0.567-0.146 0.817 0l14.465 8.34c0.251 0.141 0.42 0.402 0.429 0.703l0 0.001z"></path>
</svg>
<svg id=".brand-jquery" width="50" height="50" viewBox="0 0 50 50" x="330" y="0">
<path fill="#0769ad" d="M3.196 12.237c-4.423 6.354-3.875 14.619-0.494 21.367 0.077 0.165 0.163 0.321 0.246 0.477 0.048 0.108 0.102 0.208 0.16 0.31 0.027 0.058 0.065 0.119 0.098 0.173 0.054 0.108 0.113 0.212 0.169 0.317l0.327 0.552c0.060 0.102 0.119 0.202 0.188 0.304 0.115 0.196 0.25 0.39 0.369 0.585 0.054 0.081 0.104 0.162 0.165 0.244 0.232 0.363 0.444 0.664 0.669 0.956l-0.023-0.031c0.163 0.223 0.325 0.44 0.5 0.656 0.056 0.079 0.119 0.158 0.177 0.238l0.46 0.56c0.056 0.065 0.112 0.14 0.173 0.206 0.204 0.246 0.421 0.485 0.638 0.727 0 0.004 0.006 0.008 0.010 0.015 0.269 0.339 0.559 0.639 0.875 0.909l0.009 0.007c0.167 0.171 0.333 0.342 0.51 0.508l0.21 0.202c0.231 0.217 0.463 0.433 0.706 0.642 0.004 0 0.006 0.004 0.010 0.006l0.119 0.104c0.213 0.185 0.427 0.371 0.646 0.542l0.26 0.219c0.177 0.142 0.36 0.277 0.542 0.417l0.283 0.217c0.194 0.146 0.4 0.29 0.598 0.431 0.073 0.052 0.146 0.104 0.221 0.152l0.060 0.048 0.585 0.385 0.25 0.167c0.306 0.196 0.61 0.381 0.912 0.565 0.087 0.044 0.175 0.092 0.256 0.142 0.225 0.129 0.458 0.26 0.685 0.381 0.125 0.071 0.254 0.131 0.383 0.196 0.156 0.087 0.319 0.173 0.485 0.26 0.045 0.014 0.084 0.030 0.12 0.050l-0.004-0.002c0.069 0.031 0.133 0.065 0.2 0.098 0.25 0.125 0.51 0.244 0.781 0.363 0.050 0.021 0.104 0.042 0.158 0.071 0.3 0.131 0.6 0.256 0.91 0.379 0.071 0.021 0.146 0.056 0.219 0.083 0.281 0.106 0.571 0.215 0.856 0.317l0.104 0.038c0.319 0.108 0.633 0.213 0.956 0.313 0.075 0.021 0.152 0.048 0.231 0.069 0.331 0.1 0.652 0.219 0.985 0.283 21.375 3.896 27.588-12.852 27.588-12.852-5.219 6.796-14.479 8.588-23.25 6.594-0.325-0.075-0.65-0.179-0.977-0.275-0.596-0.172-0.989-0.301-1.379-0.438l0.197 0.060-0.129-0.050c-0.283-0.096-0.556-0.202-0.833-0.308-0.052-0.023-0.128-0.052-0.206-0.078l-0.024-0.007c-0.306-0.123-0.604-0.25-0.9-0.381-0.065-0.021-0.119-0.050-0.183-0.075-0.547-0.242-0.794-0.361-1.040-0.481l0.287 0.127c-0.077-0.033-0.146-0.069-0.221-0.108-0.196-0.092-0.392-0.196-0.583-0.296-0.178-0.085-0.306-0.152-0.431-0.221l0.042 0.021c-0.235-0.125-0.471-0.26-0.706-0.39-0.071-0.050-0.152-0.092-0.233-0.138-0.451-0.264-0.749-0.449-1.043-0.639l0.131 0.079c-0.1-0.062-0.18-0.117-0.258-0.173l0.013 0.009c-0.269-0.166-0.481-0.307-0.688-0.455l0.038 0.026c-0.073-0.048-0.14-0.1-0.215-0.152-0.266-0.184-0.466-0.329-0.662-0.478l0.050 0.036c-0.087-0.071-0.181-0.138-0.275-0.208-0.183-0.144-0.369-0.281-0.552-0.433l-0.246-0.196c-0.271-0.219-0.498-0.411-0.72-0.606l0.024 0.021c-0.023-0.023-0.048-0.043-0.075-0.061l-0.002-0.001-0.723-0.658-0.208-0.196c-0.171-0.173-0.346-0.34-0.521-0.51l-0.202-0.208c-0.216-0.215-0.426-0.434-0.631-0.658l-0.013-0.015-0.031-0.033c-0.221-0.242-0.435-0.488-0.652-0.738-0.056-0.065-0.108-0.133-0.167-0.202l-0.471-0.577c-0.164-0.205-0.396-0.509-0.625-0.816l-0.084-0.118c-4.865-6.642-6.625-15.808-2.731-23.327zM16.919 6.885c-3.206 4.602-3.025 10.756-0.529 15.623 0.462 0.912 0.931 1.684 1.45 2.417l-0.040-0.059c0.479 0.688 1.008 1.5 1.65 2.054 0.223 0.254 0.465 0.5 0.717 0.748l0.188 0.188c0.237 0.229 0.481 0.454 0.729 0.677l0.031 0.027c0.251 0.22 0.531 0.453 0.818 0.679l0.044 0.033c0.071 0.048 0.131 0.104 0.2 0.152 0.292 0.225 0.585 0.442 0.89 0.656l0.031 0.019c0.129 0.094 0.267 0.179 0.413 0.271 0.058 0.038 0.125 0.088 0.187 0.125 0.221 0.142 0.438 0.275 0.66 0.41 0.035 0.015 0.067 0.033 0.1 0.048 0.187 0.115 0.392 0.225 0.587 0.327 0.069 0.042 0.135 0.073 0.206 0.113 0.14 0.069 0.277 0.142 0.41 0.212l0.067 0.029c0.281 0.138 0.569 0.267 0.85 0.396 0.071 0.027 0.131 0.050 0.192 0.079 0.231 0.1 0.467 0.196 0.698 0.285 0.104 0.035 0.202 0.077 0.3 0.108 0.212 0.079 0.435 0.152 0.646 0.225l0.292 0.094c0.304 0.094 0.612 0.217 0.933 0.269 16.5 2.735 20.321-9.973 20.321-9.973-3.44 4.95-10.096 7.308-17.19 5.467-0.432-0.11-0.744-0.203-1.052-0.305l0.118 0.034c-0.1-0.027-0.188-0.058-0.283-0.088-0.217-0.075-0.44-0.148-0.65-0.227l-0.3-0.112c-0.233-0.094-0.471-0.181-0.698-0.281-0.071-0.031-0.135-0.052-0.19-0.083-0.292-0.131-0.585-0.26-0.869-0.4l-0.429-0.223-0.248-0.125c-0.192-0.1-0.369-0.204-0.552-0.313-0.051-0.025-0.094-0.048-0.134-0.074l0.005 0.003c-0.221-0.138-0.45-0.271-0.66-0.412-0.071-0.040-0.135-0.088-0.202-0.129l-0.433-0.283c-0.3-0.208-0.594-0.433-0.89-0.65-0.067-0.060-0.131-0.11-0.196-0.165-3.119-2.452-5.579-5.804-6.746-9.6-1.229-3.946-0.958-8.371 1.165-11.962zM28.458 2.883c-1.892 2.775-2.073 6.221-0.771 9.281 1.383 3.25 4.213 5.802 7.508 7.010 0.135 0.052 0.267 0.096 0.406 0.146l0.183 0.056c0.192 0.060 0.385 0.131 0.583 0.175 9.117 1.758 11.583-4.681 12.248-5.627-2.171 3.117-5.81 3.865-10.275 2.779-0.437-0.109-0.795-0.223-1.144-0.356l0.069 0.023c-0.527-0.185-0.952-0.364-1.364-0.564l0.079 0.034c-0.859-0.42-1.597-0.878-2.284-1.399l0.034 0.024c-4-3.029-6.477-8.813-3.869-13.523z"></path>
</svg>
<svg id=".brand-node-dot-js" width="50" height="50" viewBox="0 0 50 50" x="396" y="0">
<path fill="#393" d="M23.823 0.319l-19.521 11.313c-0.729 0.423-1.175 1.204-1.173 2.048v22.633c0 0.842 0.448 1.625 1.175 2.046l19.521 11.323c0.729 0.423 1.625 0.423 2.354 0l19.512-11.319c0.729-0.427 1.175-1.204 1.177-2.046v-22.638c0-0.842-0.45-1.625-1.179-2.050l-19.508-11.313c-0.729-0.423-1.629-0.423-2.354 0z"></path>
</svg>
<svg id=".brand-circleci" width="50" height="50" viewBox="0 0 50 50" x="462" y="0">
<path d="M18.673 25c0-3.3 2.675-5.948 5.948-5.948 3.275 0 5.95 2.675 5.95 5.948 0 3.275-2.675 5.95-5.95 5.95-3.271 0-5.948-2.675-5.948-5.95zM24.621 0c-11.673 0-21.45 8-24.225 18.802-0.021 0.075-0.021 0.146-0.021 0.25 0 0.652 0.525 1.2 1.198 1.2h10.073c0.479 0 0.902-0.271 1.077-0.694 2.077-4.5 6.625-7.65 11.9-7.65 7.221 0 13.096 5.875 13.096 13.098 0 7.229-5.875 13.104-13.104 13.104-5.271 0-9.821-3.125-11.896-7.652-0.202-0.396-0.604-0.7-1.077-0.7h-10.069c-0.65 0-1.198 0.527-1.198 1.2 0 0.077 0.029 0.15 0.029 0.25 2.75 10.792 12.542 18.792 24.217 18.792 13.8 0 25-11.198 25-25 0-13.798-11.2-25-25-25z"></path>
</svg>
<svg id=".brand-redux" width="50" height="50" viewBox="0 0 50 50" x="528" y="0">
<path fill="#764abc" d="M34.652 34.383c1.81-0.156 3.215-1.75 3.123-3.654-0.096-1.904-1.656-3.433-3.558-3.433h-0.127c-1.965 0.065-3.496 1.717-3.433 3.685 0.063 0.998 0.471 1.81 1.029 2.402-2.183 4.246-5.46 7.367-10.425 9.99-3.34 1.746-6.867 2.404-10.3 1.935-2.871-0.404-5.117-1.688-6.492-3.746-2.058-3.123-2.246-6.492-0.531-9.863 1.252-2.435 3.123-4.215 4.373-5.090-0.313-0.81-0.688-2.183-0.875-3.213-9.242 6.619-8.302 15.669-5.494 19.946 2.092 3.121 6.369 5.117 11.050 5.117 1.248 0 2.56-0.092 3.84-0.404 8.117-1.56 14.265-6.429 17.792-13.608l0.029-0.065zM45.794 26.579c-4.835-5.681-11.954-8.802-20.071-8.802h-1.063c-0.527-1.154-1.744-1.873-3.119-1.873h-0.094c-1.965 0-3.496 1.688-3.431 3.652 0.063 1.871 1.654 3.433 3.558 3.433h0.154c1.406-0.062 2.623-0.937 3.121-2.185h1.156c4.81 0 9.365 1.404 13.517 4.15 3.181 2.092 5.462 4.837 6.742 8.117 1.121 2.683 1.060 5.306-0.094 7.494-1.779 3.431-4.777 5.244-8.74 5.244-2.498 0-4.931-0.781-6.181-1.342-0.748 0.621-1.998 1.652-2.904 2.277 2.746 1.246 5.525 1.965 8.208 1.965 6.088 0 10.61-3.431 12.329-6.742 1.871-3.746 1.717-10.050-3.060-15.45l-0.029 0.063zM13.521 35.504c0.060 1.873 1.652 3.433 3.558 3.433h0.125c1.998-0.062 3.527-1.715 3.433-3.683 0-1.873-1.623-3.431-3.527-3.431h-0.127c-0.125 0-0.31 0-0.469 0.060-2.59-4.371-3.683-9.054-3.275-14.106 0.248-3.808 1.498-7.119 3.744-9.865 1.873-2.342 5.4-3.498 7.804-3.558 6.742-0.127 9.552 8.273 9.769 11.613l3.121 0.935c-0.719-10.238-7.083-15.608-13.171-15.608-5.712 0-10.985 4.152-13.11 10.24-2.902 8.117-0.998 15.919 2.56 22.162-0.31 0.406-0.498 1.123-0.435 1.808z"></path>
</svg>
<svg id=".brand-react" width="50" height="50" viewBox="0 0 50 50" x="594" y="0">
<path fill="#61dafb" d="M25 20.544c-2.461 0-4.456 1.995-4.456 4.456s1.995 4.456 4.456 4.456v0c2.461 0 4.456-1.995 4.456-4.456s-1.995-4.456-4.456-4.456v0zM12.517 33.865l-0.983-0.25c-7.329-1.852-11.533-4.996-11.533-8.623s4.204-6.771 11.533-8.623l0.983-0.248 0.277 0.975c0.851 2.907 1.817 5.379 2.967 7.745l-0.128-0.291 0.21 0.444-0.21 0.444c-1.026 2.077-1.992 4.55-2.752 7.111l-0.088 0.344-0.277 0.973zM11.077 18.646c-5.571 1.565-8.99 3.958-8.99 6.346 0 2.385 3.419 4.779 8.99 6.346 0.8-2.531 1.635-4.632 2.597-6.661l-0.135 0.315c-0.83-1.716-1.665-3.817-2.361-5.981l-0.101-0.365zM37.483 33.865l-0.277-0.977c-0.849-2.904-1.816-5.376-2.969-7.74l0.127 0.288-0.21-0.444 0.21-0.444c1.025-2.076 1.991-4.548 2.753-7.109l0.088-0.345 0.277-0.975 0.985 0.248c7.327 1.852 11.531 4.996 11.531 8.625s-4.204 6.771-11.531 8.623l-0.985 0.25zM36.46 24.992c1 2.165 1.827 4.292 2.462 6.346 5.573-1.567 8.99-3.96 8.99-6.346 0-2.388-3.419-4.779-8.99-6.346-0.798 2.529-1.633 4.63-2.596 6.659l0.134-0.313zM11.063 18.635l-0.277-0.973c-2.060-7.263-1.435-12.467 1.715-14.283 3.090-1.783 8.050 0.323 13.248 5.658l0.708 0.727-0.708 0.727c-1.791 1.86-3.449 3.878-4.94 6.021l-0.106 0.161-0.281 0.402-0.49 0.042c-2.929 0.235-5.619 0.686-8.226 1.344l0.34-0.073-0.983 0.248zM15.013 4.823c-0.558 0-1.052 0.121-1.469 0.36-2.071 1.194-2.438 5.344-1.010 10.944 1.891-0.445 4.189-0.814 6.531-1.029l0.205-0.015c1.397-1.975 2.8-3.704 4.307-5.335l-0.032 0.035c-3.25-3.165-6.327-4.96-8.531-4.96zM34.99 47.244c-0.002 0-0.002 0 0 0-2.969 0-6.781-2.235-10.737-6.298l-0.708-0.727 0.708-0.727c1.79-1.86 3.447-3.879 4.938-6.022l0.106-0.161 0.281-0.402 0.488-0.042c2.93-0.234 5.621-0.684 8.229-1.341l-0.34 0.073 0.983-0.248 0.279 0.975c2.056 7.258 1.433 12.465-1.717 14.279-0.702 0.404-1.543 0.642-2.44 0.642-0.025 0-0.049-0-0.074-0.001l0.004 0zM26.456 40.2c3.25 3.165 6.327 4.96 8.531 4.96h0.002c0.556 0 1.052-0.121 1.467-0.36 2.071-1.194 2.44-5.346 1.010-10.946-1.893 0.446-4.191 0.815-6.534 1.029l-0.203 0.015c-1.395 1.976-2.798 3.705-4.305 5.337l0.032-0.035zM38.938 18.635l-0.983-0.248c-2.27-0.587-4.961-1.038-7.717-1.26l-0.173-0.011-0.488-0.042-0.281-0.402c-1.595-2.304-3.252-4.322-5.058-6.196l0.015 0.015-0.708-0.727 0.708-0.727c5.196-5.333 10.154-7.44 13.248-5.658 3.15 1.817 3.775 7.021 1.717 14.281l-0.279 0.975zM30.729 15.083c2.379 0.217 4.64 0.569 6.738 1.044 1.429-5.6 1.060-9.75-1.010-10.944-2.058-1.19-5.927 0.633-10 4.6 1.474 1.596 2.877 3.325 4.165 5.14l0.108 0.16zM15.013 47.244c-0.021 0-0.047 0.001-0.072 0.001-0.897 0-1.739-0.238-2.465-0.655l0.024 0.013c-3.15-1.815-3.775-7.019-1.715-14.279l0.275-0.975 0.983 0.248c2.406 0.606 5.060 1.033 7.885 1.269l0.49 0.042 0.279 0.402c1.598 2.304 3.255 4.323 5.061 6.199l-0.015-0.016 0.708 0.727-0.708 0.727c-3.954 4.063-7.767 6.298-10.731 6.298zM12.533 33.854c-1.429 5.6-1.060 9.752 1.010 10.946 2.056 1.173 5.923-0.635 10-4.6-1.474-1.597-2.877-3.326-4.167-5.141l-0.108-0.161c-2.545-0.229-4.843-0.597-7.085-1.111l0.35 0.067zM25 35.163c-1.715 0-3.477-0.075-5.242-0.221l-0.49-0.042-0.281-0.402c-0.851-1.2-1.78-2.642-2.651-4.124l-0.161-0.297c-0.707-1.184-1.517-2.706-2.265-4.262l-0.164-0.379-0.208-0.444 0.208-0.444c0.912-1.936 1.722-3.457 2.59-4.94l-0.161 0.298c0.862-1.492 1.81-2.979 2.813-4.421l0.281-0.402 0.49-0.042c1.571-0.141 3.397-0.222 5.243-0.222s3.672 0.081 5.477 0.238l-0.234-0.017 0.488 0.042 0.279 0.402c1.838 2.603 3.585 5.574 5.081 8.687l0.162 0.375 0.21 0.444-0.21 0.444c-1.653 3.487-3.4 6.458-5.374 9.257l0.13-0.195-0.279 0.402-0.488 0.042c-1.765 0.146-3.529 0.221-5.244 0.221zM20.423 32.904c3.083 0.231 6.071 0.231 9.156 0 1.569-2.258 3.091-4.85 4.417-7.556l0.158-0.356c-1.479-3.059-3.003-5.652-4.706-8.11l0.129 0.197c-1.37-0.11-2.966-0.173-4.577-0.173s-3.207 0.063-4.786 0.187l0.209-0.013c-1.576 2.261-3.099 4.854-4.422 7.562l-0.155 0.351c1.486 3.062 3.009 5.655 4.709 8.115l-0.132-0.202z"></path>
</svg>
<svg id=".brand-javascript" width="50" height="50" viewBox="0 0 50 50" x="660" y="0">
<path fill="#f7df1e" d="M0 0h50v50h-50v-50zM45.904 38.075c-0.365-2.281-1.85-4.198-6.256-5.985-1.533-0.719-3.238-1.219-3.744-2.375-0.19-0.688-0.219-1.063-0.096-1.469 0.313-1.346 1.906-1.75 3.156-1.375 0.812 0.25 1.563 0.875 2.033 1.875 2.154-1.408 2.154-1.408 3.656-2.344-0.563-0.875-0.842-1.252-1.221-1.625-1.313-1.469-3.060-2.219-5.904-2.154l-1.469 0.185c-1.408 0.344-2.75 1.094-3.563 2.094-2.375 2.69-1.69 7.377 1.185 9.315 2.844 2.125 7.002 2.592 7.533 4.594 0.5 2.437-1.813 3.219-4.096 2.937-1.69-0.375-2.625-1.221-3.656-2.783l-3.813 2.19c0.438 1 0.938 1.435 1.687 2.31 3.625 3.658 12.688 3.471 14.315-2.092 0.060-0.188 0.5-1.469 0.154-3.438l0.096 0.14zM27.19 22.981h-4.683c0 4.038-0.019 8.050-0.019 12.094 0 2.567 0.131 4.923-0.288 5.648-0.687 1.435-2.458 1.252-3.262 1-0.825-0.408-1.244-0.971-1.729-1.781-0.131-0.219-0.229-0.408-0.265-0.408l-3.802 2.344c0.635 1.313 1.563 2.442 2.758 3.16 1.781 1.063 4.175 1.406 6.681 0.844 1.631-0.471 3.038-1.44 3.773-2.94 1.063-1.938 0.838-4.313 0.827-6.971 0.025-4.279 0-8.56 0-12.873l0.008-0.117z"></path>
</svg>
<svg id=".brand-sass" width="50" height="50" viewBox="0 0 50 50" x="726" y="0">
<path fill="#c69" d="M25 0c13.806 0 25 11.194 25 25s-11.194 25-25 25-25-11.194-25-25 11.194-25 25-25zM20.031 33.329c0.365 1.344 0.325 2.6-0.050 3.733l-0.135 0.375c-0.050 0.127-0.108 0.25-0.162 0.367-0.292 0.604-0.679 1.167-1.156 1.688-1.454 1.581-3.483 2.181-4.354 1.677-0.938-0.546-0.471-2.781 1.217-4.563 1.815-1.913 4.417-3.144 4.417-3.144v-0.006l0.225-0.127zM40.679 10.702c-1.129-4.444-8.494-5.904-15.463-3.427-4.144 1.473-8.633 3.787-11.86 6.806-3.84 3.585-4.45 6.71-4.198 8.017 0.89 4.606 7.202 7.619 9.798 9.854v0.012c-0.765 0.375-6.367 3.185-7.679 6.094-1.406 3.063 0.219 5.252 1.281 5.531 3.281 0.908 6.656-0.75 8.469-3.435 1.75-2.627 1.596-6.002 0.842-7.658 1.033-0.281 2.25-0.406 3.812-0.217 4.377 0.5 5.252 3.25 5.063 4.375-0.188 1.123-1.090 1.779-1.404 1.967-0.313 0.19-0.406 0.25-0.377 0.377 0.031 0.188 0.19 0.188 0.438 0.156 0.344-0.063 2.283-0.938 2.377-3.065 0.094-2.688-2.471-5.685-7.031-5.625-1.875 0.033-3.065 0.19-3.906 0.533-0.063-0.094-0.127-0.156-0.219-0.219-2.813-3.031-8.031-5.156-7.812-9.188 0.062-1.469 0.594-5.342 10-10.029 7.719-3.846 13.877-2.781 14.94-0.438 1.527 3.342-3.283 9.563-11.315 10.467-3.063 0.344-4.656-0.842-5.065-1.281-0.435-0.469-0.498-0.5-0.654-0.404-0.25 0.125-0.094 0.531 0 0.781 0.25 0.625 1.219 1.719 2.908 2.281 1.467 0.469 5.063 0.748 9.375-0.938 4.842-1.873 8.623-7.094 7.529-11.469l0.152 0.14z"></path>
</svg>
<svg id=".brand-gulp" width="50" height="50" viewBox="0 0 50 50" x="792" y="0">
<path fill="#da4648" d="M31.575 40.483l1.325-2.258s-3.008 1.231-8.042 1.231c-5.038 0-8-1.183-8-1.183l1.481 2.465 0.525 7.769c0 0.84 2.738 1.496 6.117 1.496 3.381 0 6.121-0.654 6.121-1.496l0.477-7.99v-0.033zM32.856 25.804c-1.602 0.096-2.402 1.881-3.206 3.76-0.298 0.688-1.313 3.619-1.975 3.256-0.663-0.36 0.86-2.769 1.29-4.202-0.494 0.362-2.302 1.769-2.769 0.448-0.746 0.654-2.352 1-2.171-0.685-0.398 0.719-1.294 1.715-2.373 1.279-1.402-0.531 0.823-5.023 1.375-4.806 0.554 0.252-0.11 1.25-0.283 1.654-0.387 0.873-0.829 1.996-0.531 2.215 0.5 0.404 1.883-1.465 1.915-1.498 0.258-0.344 0.998-2.56 1.59-2.306 0.594 0.279-1.481 3.21-0.708 3.804 0.158 0.125 0.798-0.062 1.185-0.498 0.25-0.25 0.162-0.875 0.998-2.871 0.842-1.998 1.592-4.492 2.165-4.304s0.102 1.465-0.106 1.965c-0.967 2.246-2.642 5.925-1.854 5.646 0.779-0.281 1.185-0.281 1.965-1.185s0.719-2.4 1.248-2.369c0.5 0.029 0.438 0.529 0.313 0.871 0.5-0.563 2.4-1.808 2.84-0.592 0.529 1.433-2.717 3.525-1.904 3.4 0.781-0.094 2.058-0.904 2.621-1.652l1.498-13.542s-1.529 1.25-11.169 1.25-11.008-1.217-11.008-1.217l1.277 12.354c0.688-1.933 2.308-5.862 4.838-5.708 1.154 0.062 2.715 2.31 1.371 2.373-0.563 0.031-0.625-1.123-1.279-1.279-0.498-0.096-1.154 0.281-1.59 0.719-0.842 0.842-2.717 4.179-2.467 5.835 0.313 2.121 2.931-0.721 3.369-1.563 0.31-0.59 0.529-2.371 1.183-2.183 0.688 0.187-0.060 2.029-0.563 3.619-0.563 1.81-0.842 3.71-1.525 3.492-0.688-0.217 0.435-2.556 0.371-2.963-0.652 0.623-1.84 2.125-3.398 1.373l0.779 7.706s2.123 1.652 8.485 1.652 8.579-1.652 8.579-1.652l0.998-8.923c-0.81 0.813-3.369 2.215-3.525 0.625-0.123-1.279 2.777-3.121 2.029-3.154l0.125-0.144zM36.138 1.394l-5.54 5.833-1.012 3.96c3.919 0.25 6.644 0.804 6.644 1.446 0 0.873-5.029 1.577-11.231 1.577s-11.229-0.715-11.229-1.59c0-0.873 5.029-1.592 11.231-1.592 0.881 0 1.758 0 2.633 0.033l1.169-4.742 5.885-6.24c0.142-0.188 0.583-0.031 0.987 0.313 0.404 0.31 0.623 0.717 0.498 0.904v0.063l-0.035 0.033zM28.15 13.467s-1.090 0-1.271-0.167c-0.046-0.052-0.075-0.121-0.075-0.187 0-0.121 0.081-0.19 0.188-0.229l0.092 0.156c-0.044 0.012-0.060 0.031-0.069 0.048 0 0.085 0.654 0.144 1.156 0.137 0.498-0.006 1.106-0.048 1.11-0.133 0-0.025-0.048-0.048-0.127-0.069l0.094-0.15c0.131 0.042 0.244 0.121 0.244 0.252 0 0.229-0.294 0.267-0.479 0.294-0.223 0.031-0.858 0.048-0.858 0.048h-0.004z"></path>
</svg>
<svg id=".brand-bootstrap" width="50" height="50" viewBox="0 0 50 50" x="858" y="0">
<path fill="#563d7c" d="M41.667 0h-33.333c-4.598 0.013-8.321 3.735-8.333 8.333v33.333c0 4.583 3.75 8.333 8.333 8.333h33.333c4.583 0 8.333-3.75 8.333-8.333v-33.333c0-4.583-3.75-8.333-8.333-8.333zM37.11 35.115c-0.417 1.004-1.077 1.89-1.923 2.571-0.875 0.708-1.983 1.292-3.348 1.708-1.363 0.423-2.983 0.635-4.86 0.635h-13.4v-29.167h14.171c2.621 0 4.721 0.59 6.292 1.792 1.583 1.208 2.371 3.008 2.371 5.438 0 1.469-0.358 2.729-1.079 3.771-0.717 1.035-1.75 1.846-3.083 2.408v0.096c1.779 0.375 3.156 1.219 4.063 2.531s1.371 2.971 1.371 4.973c0 1.121-0.217 2.187-0.625 3.183l0.052 0.056zM31.327 27.927c-0.854-0.781-2.054-1.162-3.604-1.162h-9.004v9.1h9.029c1.542 0 2.75-0.4 3.604-1.208 0.854-0.802 1.292-1.946 1.292-3.417-0.015-1.438-0.438-2.55-1.292-3.313h-0.035zM30.077 22.046c0.825-0.7 1.229-1.702 1.229-3.008 0-1.467-0.365-2.508-1.104-3.104-0.733-0.594-1.792-0.902-3.183-0.902h-8.333v8.048h8.333c1.215 0 2.25-0.354 3.050-1.033z"></path>
</svg>
</svg>
