<?xml version="1.0" encoding="utf-8"?>
<!-- Generated by IcoMoon.io -->
<svg version="1.1" xmlns="http://www.w3.org/2000/svg" xmlns:xlink="http://www.w3.org/1999/xlink" width="640" height="66" viewBox="0 0 640 66">
<svg id="brand-django" width="25" height="25" viewBox="0 0 25 25" x="0" y="0">
<path d="M11.61 0h4.088v18.922c-2.097 0.398-3.636 0.557-5.308 0.557-4.991 0-7.592-2.256-7.592-6.583 0-4.168 2.76-6.875 7.034-6.875 0.664 0 1.168 0.053 1.778 0.213v-6.233zM11.61 9.524c-0.387-0.135-0.834-0.213-1.298-0.213-0.029 0-0.058 0-0.086 0.001l0.004-0c-2.071 0-3.265 1.274-3.265 3.504 0 2.177 1.142 3.371 3.239 3.371 0.451 0 0.823-0.026 1.406-0.106v-6.557zM22.202 6.313v9.476c0 3.265-0.239 4.831-0.955 6.184-0.664 1.301-1.54 2.124-3.345 3.026l-3.796-1.805c1.805-0.849 2.681-1.593 3.239-2.734 0.584-1.168 0.77-2.522 0.77-6.078v-8.070h4.087zM18.115 0.022h4.088v4.194h-4.088v-4.194z"></path>
</svg>
<svg id="brand-webstorm" width="25" height="25" viewBox="0 0 25 25" x="41" y="0">
<path fill="#00cdd7" d="M4.844 20.157h15.313v-15.314h-15.313v15.314zM12.032 18.359h-5.859v-0.984h5.859v0.984zM16.329 6.594c0.858 0 1.717 0.313 2.374 0.828l-0.734 1.094c-0.468-0.374-1.047-0.594-1.64-0.625-0.517 0-0.829 0.234-0.829 0.594 0 0.421 0.282 0.578 1.374 0.844 1.282 0.359 2.032 0.828 2.032 1.953 0 1.297-0.984 2.031-2.344 2.031-1.001-0.031-1.97-0.407-2.734-1.047l0.811-1.017c0.594 0.469 1.172 0.781 1.923 0.781 0.578 0 0.938-0.234 0.938-0.625 0-0.36-0.236-0.547-1.281-0.828-1.298-0.344-2.125-0.704-2.125-1.984v-0.046c0-1.172 0.938-1.953 2.235-1.953zM7.345 6.719l0.983 3.75 1.094-3.75h1.094l1.095 3.75 0.968-3.75h1.532l-1.875 6.484h-1.22l-1.046-3.75-1.062 3.75h-1.203l-1.876-6.484h1.517zM25 8.469l-1.999-4.953-1.251-3-5.811-0.516-0.907 0.875-1.156-0.438-3.672 1.953-3.953-2.344-6.25 2.563 3.359 19.97 13.828 2.421 0.875-4.438 0.156-0.095h-13.688v-15.936h15.938v14.609l4.531-2.688-2.734-5.125z"></path>
</svg>
<svg id="brand-visualstudiocode" width="25" height="25" viewBox="0 0 25 25" x="82" y="0">
<path fill="#007acc" d="M25 2.604v19.792l-6.25 2.604-18.75-5.729v-0.584l18.75 1.609v-20.296zM1.042 13.657l3.526-3.241-3.526-3.241 1.477-0.861 3.578 2.696 6.403-5.885 3.125 1.517v11.55l-3.125 1.517-6.403-5.885-3.577 2.697zM7.963 10.417l4.537 3.42v-6.84z"></path>
</svg>
<svg id="brand-heroku" width="25" height="25" viewBox="0 0 25 25" x="123" y="0">
<path fill="#430098" d="M21.469 0h-17.938c-1.251 0-2.25 1-2.25 2.25v20.501c0 1.248 0.999 2.249 2.25 2.249h17.938c1.25 0 2.249-1.001 2.249-2.249v-20.501c0.001-1.25-0.998-2.25-2.249-2.25zM22.469 22.751c0 0.561-0.439 1-1 1h-17.938c-0.562 0-1-0.439-1-1v-20.501c0-0.562 0.438-1.001 1-1.001h17.938c0.561 0 1 0.439 1 1.001v20.501zM6.906 21.249l2.813-2.499-2.813-2.5v4.999zM17.031 11.125c-0.499-0.5-1.436-1.125-2.999-1.125-1.689 0-3.439 0.439-4.688 0.875v-7.125h-2.5v10.812l1.75-0.812s2.875-1.313 5.375-1.313c1.25 0 1.563 0.687 1.563 1.313v7.5h2.5v-7.5c0.061-0.186 0.061-1.564-1.001-2.625zM13.719 7.813h2.5c1.125-1.313 1.688-2.626 1.875-4.063h-2.499c-0.251 1.436-0.876 2.75-1.876 4.063z"></path>
</svg>
<svg id="brand-git" width="25" height="25" viewBox="0 0 25 25" x="164" y="0">
<path fill="#f05032" d="M24.527 11.385l-10.916-10.915c-0.629-0.628-1.648-0.628-2.279 0l-2.261 2.266 2.875 2.875c0.672-0.224 1.436-0.073 1.968 0.459 0.537 0.536 0.685 1.31 0.456 1.979l2.769 2.771c0.672-0.232 1.445-0.081 1.979 0.453 0.751 0.75 0.751 1.962 0 2.713-0.749 0.749-1.959 0.749-2.708 0-0.561-0.564-0.702-1.393-0.421-2.079l-2.593-2.579v6.797c0.183 0.090 0.356 0.211 0.508 0.363 0.743 0.751 0.743 1.961 0 2.708-0.749 0.751-1.968 0.751-2.718 0-0.749-0.749-0.749-1.957 0-2.706 0.19-0.188 0.403-0.329 0.63-0.423v-6.864c-0.226-0.095-0.442-0.231-0.625-0.418-0.568-0.568-0.704-1.398-0.412-2.093l-2.825-2.839-7.485 7.48c-0.625 0.63-0.625 1.65 0 2.28l10.917 10.914c0.629 0.629 1.648 0.629 2.277 0l10.865-10.865c0.63-0.628 0.63-1.648 0-2.278z"></path>
</svg>
<svg id="brand-circleci" width="25" height="25" viewBox="0 0 25 25" x="205" y="0">
<path d="M9.336 12.5c0-1.65 1.338-2.974 2.974-2.974 1.638 0 2.975 1.337 2.975 2.974 0 1.637-1.338 2.975-2.975 2.975-1.635 0-2.974-1.338-2.974-2.975zM12.31 0c-5.836 0-10.725 4-12.112 9.401-0.010 0.038-0.010 0.073-0.010 0.125 0 0.326 0.263 0.6 0.599 0.6h5.036c0.24 0 0.451-0.135 0.539-0.347 1.039-2.25 3.313-3.825 5.95-3.825 3.61 0 6.548 2.937 6.548 6.549 0 3.615-2.937 6.552-6.552 6.552-2.635 0-4.91-1.563-5.948-3.826-0.101-0.198-0.302-0.35-0.539-0.35h-5.034c-0.325 0-0.599 0.264-0.599 0.6 0 0.039 0.015 0.075 0.015 0.125 1.375 5.396 6.271 9.396 12.108 9.396 6.9 0 12.5-5.599 12.5-12.5 0-6.899-5.6-12.5-12.5-12.5z"></path>
</svg>
<svg id="brand-eslint" width="25" height="25" viewBox="0 0 25 25" x="246" y="0">
<path fill="#4b32c3" d="M7.559 9.512l4.749-2.742c0.055-0.032 0.121-0.051 0.192-0.051s0.137 0.019 0.193 0.052l-0.002-0.001 4.749 2.742c0.115 0.068 0.192 0.191 0.192 0.333 0 0 0 0.001 0 0.001v-0 5.482c-0 0.141-0.076 0.264-0.19 0.331l-0.002 0.001-4.749 2.742c-0.055 0.032-0.121 0.051-0.192 0.051s-0.137-0.019-0.193-0.052l0.002 0.001-4.749-2.742c-0.115-0.068-0.192-0.191-0.192-0.333 0-0 0-0.001 0-0.001v0-5.481c0-0 0-0 0-0 0-0.141 0.076-0.265 0.19-0.332l0.002-0.001zM24.846 12.010l-5.673-9.87c-0.206-0.357-0.587-0.621-1-0.621h-11.345c-0.413 0-0.794 0.264-1 0.621l-5.673 9.848c-0.097 0.167-0.154 0.368-0.154 0.582s0.057 0.415 0.157 0.587l-0.003-0.006 5.674 9.79c0.205 0.356 0.586 0.539 0.999 0.539h11.347c0.411 0 0.792-0.177 0.999-0.533l5.673-9.805c0.097-0.162 0.154-0.357 0.154-0.566s-0.057-0.404-0.157-0.571l0.003 0.005zM20.149 16.756c-0.004 0.151-0.088 0.281-0.21 0.351l-0.002 0.001-7.228 4.169c-0.059 0.034-0.129 0.054-0.204 0.054s-0.146-0.020-0.206-0.055l0.002 0.001-7.232-4.169c-0.125-0.071-0.209-0.201-0.214-0.351l-0-0.001v-8.34c0-0.146 0.086-0.28 0.212-0.352l7.225-4.169c0.125-0.073 0.283-0.073 0.408 0l7.232 4.17c0.125 0.070 0.21 0.201 0.215 0.351l0 0.001z"></path>
</svg>
<svg id="brand-mongodb" width="25" height="25" viewBox="0 0 25 25" x="287" y="0">
<path fill="#47a248" d="M17.896 9.915c-1.316-5.792-4.419-7.695-4.752-8.423-0.367-0.514-0.764-1.492-0.764-1.492-0.002 0.020-0.004 0.032-0.005 0.051v0.014h-0.001c-0.002 0.016-0.003 0.026-0.004 0.041v0.016h-0.002c0 0.010-0.002 0.019-0.002 0.027v0.027h-0.003c-0.001 0.008-0.001 0.019-0.003 0.026v0.022h-0.002c0 0.007 0 0.016-0.002 0.022v0.021h-0.002c0 0.010-0.001 0.023-0.002 0.033v0.002c-0.003 0.018-0.006 0.035-0.009 0.052v0.008h-0.002c-0.001 0.004-0.003 0.008-0.003 0.013v0.018h-0.003v0.023h-0.005v0.019h-0.005v0.022h-0.004v0.020h-0.004v0.018h-0.006v0.015h-0.004v0.019h-0.004v0.015h-0.005v0.014h-0.003v0.016h-0.004c-0.001 0.001-0.001 0.003-0.001 0.004v0.010h-0.003c-0.001 0.002-0.001 0.004-0.001 0.006v0.006h-0.002c-0.001 0.003-0.002 0.008-0.002 0.010-0.003 0.007-0.007 0.015-0.010 0.022v0.002c-0.002 0.002-0.004 0.005-0.005 0.007v0.008h-0.004v0.008h-0.005v0.008h-0.003v0.010h-0.006v0.015h-0.004v0.004h-0.004v0.008h-0.004v0.011h-0.004v0.008h-0.006v0.011h-0.004v0.008h-0.005v0.008h-0.003v0.010h-0.005v0.008h-0.004v0.006h-0.004v0.008h-0.006v0.009h-0.004v0.006h-0.005v0.008h-0.004v0.011h-0.005v0.004h-0.003v0.008h-0.006v0.004h-0.004v0.010h-0.004v0.004h-0.004v0.008h-0.005v0.006h-0.003l-0.002 0.004v0.004h-0.002c-0.001 0.002-0.002 0.002-0.002 0.004v0.001h-0.001c-0.001 0.003-0.002 0.005-0.004 0.007v0.003h-0.001c-0.005 0.006-0.008 0.012-0.013 0.019v0.001c-0.002 0.002-0.007 0.006-0.009 0.010v0.002h-0.001c-0.001 0.001-0.003 0.002-0.003 0.003v0.003h-0.002l-0.003 0.003v0.001h-0.001c0 0.001-0.002 0.002-0.003 0.004v0.004h-0.003l-0.002 0.002v0.002h-0.002c0 0.002-0.002 0.002-0.002 0.003v0.003h-0.004c0 0.001-0.001 0.002-0.002 0.003v0.006h-0.003v0.004h-0.004v0.006h-0.004v0.008h-0.005v-0.008h-0.005v0.004h-0.004v0.006h-0.005v0.008h-0.005v0.004h-0.004v0.006h-0.004v0.004h-0.004v0.008h-0.006v0.004h-0.004v0.006h-0.005v0.004h-0.004v0.005h-0.005v0.010h-0.002v0.004h-0.006v0.005h-0.004v0.002h-0.004v0.004h-0.005v0.010h-0.004v0.004h-0.005v0.004h-0.004v0.006h-0.005v0.004h-0.005v0.004h-0.004v0.004h-0.004v0.010h-0.004v0.005h-0.006v0.004h-0.004v0.004h-0.005v0.006h-0.004v0.004h-0.005v0.007h-0.004v0.004h-0.006v0.006h-0.002v0.004h-0.004v0.004h-0.005v0.004h-0.004v0.006h-0.005v0.004h-0.003c-0.001 0.001-0.001 0.002-0.001 0.002v0.002h-0.002l-0.004 0.004s-0.002 0.002-0.004 0.003v0.006h-0.004v0.005h-0.004v0.004h-0.004v0.004h-0.003l-0.003 0.003v0.003h-0.002l-0.002 0.002v0.003h-0.002c-0.005 0.006-0.007 0.010-0.015 0.017-0.002 0.002-0.008 0.007-0.013 0.010-0.012 0.008-0.028 0.022-0.041 0.033-0.008 0.005-0.017 0.013-0.023 0.018v0.001h-0.001c-0.017 0.014-0.032 0.026-0.051 0.041v0.001c-0.025 0.021-0.049 0.041-0.077 0.065v-0.001h-0.002c-0.059 0.049-0.122 0.104-0.194 0.166v0.001h-0.001c-0.176 0.154-0.385 0.352-0.62 0.592l-0.020 0.020c-1.417 1.466-3.649 4.52-3.884 9.455-0.021 0.408-0.017 0.805 0.006 1.192v0.009c0.114 1.945 0.724 3.605 1.487 4.954v0.001c0.304 0.538 0.632 1.026 0.965 1.464v0.001c1.148 1.516 2.32 2.414 2.619 2.631 0.459 1.066 0.417 2.895 0.417 2.895l0.671 0.224s-0.136-1.772 0.055-2.627c0.059-0.268 0.2-0.496 0.364-0.69 0.11-0.078 0.437-0.314 0.83-0.672 0.019-0.020 0.029-0.037 0.046-0.056 1.584-1.477 4.544-5.115 3.529-11.041z"></path>
</svg>
<svg id="brand-postgresql" width="25" height="25" viewBox="0 0 25 25" x="328" y="0">
<path fill="#336791" d="M17.842 0c-1.025 0.008-2.012 0.161-2.945 0.439l0.075-0.019-0.066 0.021c-0.529-0.098-1.144-0.16-1.771-0.172l-0.010-0c-1.227-0.021-2.281 0.277-3.131 0.773-0.837-0.291-2.575-0.792-4.406-0.692-1.275 0.070-2.667 0.457-3.698 1.546-1.028 1.089-1.572 2.773-1.457 5.065 0.031 0.632 0.211 1.664 0.51 2.999s0.719 2.899 1.243 4.325c0.524 1.427 1.098 2.708 1.995 3.579 0.448 0.436 1.065 0.803 1.792 0.773 0.51-0.021 0.972-0.245 1.37-0.575 0.194 0.255 0.401 0.367 0.59 0.47 0.238 0.13 0.469 0.219 0.708 0.277 0.43 0.107 1.167 0.251 2.029 0.104 0.294-0.049 0.603-0.145 0.911-0.281 0.011 0.344 0.025 0.68 0.039 1.021 0.043 1.079 0.070 2.076 0.394 2.95 0.052 0.143 0.195 0.878 0.757 1.527 0.562 0.65 1.665 1.055 2.92 0.786 0.885-0.19 2.011-0.531 2.759-1.596 0.74-1.052 1.073-2.561 1.139-5.009 0.017-0.132 0.036-0.245 0.057-0.35l0.176 0.016h0.021c0.945 0.043 1.97-0.092 2.826-0.49 0.758-0.351 1.332-0.706 1.75-1.336 0.104-0.156 0.219-0.345 0.25-0.67s-0.155-0.833-0.465-1.068c-0.62-0.471-1.009-0.292-1.427-0.205-0.372 0.086-0.802 0.141-1.244 0.152l-0.008 0c1.204-2.028 2.068-4.182 2.56-6.089 0.292-1.125 0.455-2.162 0.469-3.070s-0.060-1.71-0.604-2.405c-1.699-2.171-4.087-2.771-5.935-2.792-0.057-0.001-0.115-0.002-0.172-0.001zM17.793 0.667c1.748-0.017 3.981 0.474 5.584 2.523 0.36 0.46 0.468 1.133 0.455 1.962-0.014 0.828-0.167 1.82-0.447 2.906-0.544 2.104-1.571 4.557-3.018 6.758 0.047 0.034 0.102 0.064 0.159 0.088l0.005 0.002c0.302 0.125 0.991 0.232 2.365-0.050 0.346-0.073 0.599-0.122 0.861 0.078 0.117 0.1 0.191 0.248 0.191 0.413 0 0.010-0 0.021-0.001 0.031l0-0.001c-0.015 0.133-0.064 0.252-0.137 0.352l0.001-0.002c-0.266 0.399-0.79 0.777-1.461 1.089-0.595 0.277-1.448 0.422-2.204 0.43-0.379 0.004-0.729-0.025-1.026-0.118l-0.019-0.007c-0.115 1.104-0.378 3.284-0.55 4.279-0.137 0.802-0.378 1.44-0.837 1.917-0.458 0.477-1.107 0.765-1.98 0.952-1.081 0.232-1.87-0.018-2.378-0.446-0.507-0.427-0.74-0.994-0.879-1.341-0.096-0.24-0.146-0.55-0.194-0.965s-0.083-0.922-0.107-1.494c-0.023-0.582-0.036-1.265-0.036-1.951 0-0.238 0.002-0.476 0.005-0.713l-0 0.036c-0.436 0.4-0.987 0.681-1.598 0.789l-0.019 0.003c-0.718 0.122-1.358 0.002-1.741-0.094-0.206-0.052-0.386-0.124-0.554-0.216l0.012 0.006c-0.177-0.095-0.346-0.202-0.458-0.414-0.045-0.081-0.071-0.177-0.071-0.279 0-0.042 0.004-0.082 0.013-0.121l-0.001 0.004c0.037-0.141 0.117-0.259 0.226-0.344l0.001-0.001c0.206-0.168 0.479-0.261 0.891-0.347 0.749-0.154 1.010-0.259 1.17-0.385 0.135-0.108 0.289-0.327 0.559-0.648-0.001-0.010-0.002-0.025-0.003-0.040l-0-0.003c-0.51-0.015-0.985-0.151-1.401-0.381l0.016 0.008c-0.156 0.165-0.954 1.008-1.927 2.179-0.409 0.49-0.861 0.771-1.339 0.791-0.477 0.021-0.908-0.22-1.275-0.575-0.732-0.711-1.317-1.935-1.826-3.319-0.508-1.383-0.922-2.924-1.216-4.236-0.295-1.313-0.469-2.371-0.494-2.881-0.109-2.169 0.398-3.63 1.268-4.552 0.871-0.922 2.065-1.271 3.228-1.338 2.089-0.12 4.072 0.608 4.473 0.765 0.773-0.525 1.769-0.852 3.012-0.831 0.626 0.009 1.228 0.091 1.804 0.239l-0.053-0.012 0.021-0.009c0.201-0.075 0.458-0.151 0.721-0.213l0.048-0.010c0.645-0.157 1.388-0.252 2.151-0.261l0.006-0zM17.951 1.365h-0.152c-0.634 0.009-1.245 0.081-1.835 0.211l0.060-0.011c1.298 0.575 2.278 1.46 2.969 2.344 0.457 0.578 0.852 1.236 1.157 1.943l0.022 0.057c0.115 0.275 0.192 0.507 0.235 0.688 0.022 0.091 0.036 0.167 0.042 0.246 0.002 0.040 0.004 0.080-0.012 0.15 0 0.003-0.005 0.010-0.006 0.014 0.031 0.912-0.195 1.531-0.222 2.402-0.021 0.631 0.141 1.373 0.18 2.182 0.038 0.76-0.054 1.596-0.548 2.416 0.042 0.050 0.079 0.1 0.119 0.15 1.306-2.057 2.248-4.333 2.75-6.274 0.269-1.045 0.411-1.992 0.424-2.742 0.010-0.75-0.129-1.294-0.307-1.521-1.398-1.787-3.29-2.243-4.875-2.255zM12.961 1.631c-1.231 0.003-2.115 0.375-2.784 0.932-0.691 0.576-1.154 1.365-1.458 2.172-0.361 0.958-0.485 1.885-0.534 2.515l0.014-0.008c0.372-0.208 0.86-0.417 1.383-0.538 0.523-0.12 1.086-0.157 1.597 0.041s0.932 0.664 1.085 1.37c0.733 3.393-0.228 4.654-0.582 5.606-0.112 0.274-0.23 0.626-0.328 0.985l-0.016 0.070c0.045-0.010 0.090-0.023 0.134-0.027 0.25-0.021 0.446 0.062 0.563 0.112 0.356 0.148 0.601 0.458 0.733 0.813 0.034 0.093 0.059 0.193 0.074 0.296 0.013 0.036 0.021 0.077 0.021 0.12 0 0.004-0 0.009-0 0.013l0-0.001c-0.017 0.521-0.027 1.133-0.027 1.747 0 0.755 0.015 1.506 0.043 2.254l-0.003-0.108c0.024 0.56 0.059 1.054 0.104 1.444 0.045 0.389 0.108 0.684 0.149 0.784 0.133 0.333 0.328 0.77 0.68 1.067 0.352 0.296 0.857 0.494 1.78 0.296 0.8-0.172 1.294-0.41 1.624-0.753 0.329-0.343 0.526-0.82 0.652-1.55 0.189-1.094 0.568-4.266 0.614-4.863-0.021-0.45 0.046-0.796 0.19-1.059 0.148-0.271 0.377-0.436 0.575-0.526 0.099-0.045 0.192-0.075 0.268-0.097-0.093-0.133-0.176-0.243-0.262-0.35l0.009 0.012c-0.273-0.33-0.506-0.707-0.682-1.115l-0.012-0.030c-0.106-0.218-0.196-0.383-0.29-0.544l0.022 0.041c-0.139-0.25-0.314-0.563-0.497-0.914-0.367-0.703-0.766-1.555-0.973-2.385-0.206-0.829-0.236-1.688 0.293-2.293 0.469-0.538 1.292-0.76 2.527-0.635-0.036-0.109-0.058-0.2-0.12-0.346-0.302-0.702-0.665-1.307-1.098-1.855l0.013 0.017c-1.047-1.339-2.742-2.666-5.36-2.708h-0.12zM6.043 1.685c-0.132 0-0.265 0.004-0.396 0.011-1.052 0.060-2.047 0.366-2.758 1.12-0.712 0.754-1.181 1.991-1.079 4.037 0.020 0.388 0.189 1.473 0.478 2.762 0.289 1.29 0.698 2.807 1.19 4.148 0.493 1.341 1.090 2.507 1.656 3.059 0.285 0.276 0.533 0.387 0.758 0.378 0.226-0.010 0.498-0.141 0.83-0.54 0.653-0.786 1.269-1.48 1.906-2.155l-0.021 0.022c-0.77-0.672-1.254-1.655-1.254-2.751 0-0.187 0.014-0.371 0.041-0.551l-0.003 0.020c0.107-0.77 0.122-1.49 0.109-2.058-0.013-0.554-0.052-0.923-0.052-1.153-0-0.003-0-0.006-0-0.010s0-0.007 0-0.010v0.001-0.005l-0.001-0.006v-0.001c0-0.002 0-0.003 0-0.005 0-1.26 0.226-2.467 0.64-3.583l-0.023 0.071c0.292-0.775 0.726-1.563 1.377-2.2-0.64-0.21-1.775-0.531-3.004-0.592-0.118-0.006-0.256-0.010-0.395-0.010h-0.001zM18.957 7.187c-0.707 0.009-1.104 0.192-1.313 0.43-0.295 0.339-0.323 0.932-0.14 1.664 0.182 0.732 0.559 1.551 0.914 2.231 0.177 0.341 0.349 0.647 0.487 0.896 0.14 0.25 0.242 0.427 0.304 0.578 0.057 0.14 0.121 0.262 0.185 0.377 0.274-0.578 0.323-1.146 0.295-1.738-0.036-0.732-0.206-1.481-0.181-2.24 0.028-0.886 0.203-1.464 0.219-2.149-0.231-0.032-0.499-0.050-0.771-0.050h-0zM10.38 7.307c-0.229 0.002-0.45 0.030-0.662 0.081l0.020-0.004c-0.455 0.112-0.855 0.273-1.226 0.48l0.025-0.013c-0.139 0.075-0.258 0.154-0.369 0.242l0.005-0.004-0.023 0.021c0.006 0.152 0.036 0.521 0.049 1.064 0.012 0.594-0.002 1.351-0.117 2.171-0.249 1.781 1.044 3.256 2.563 3.258 0.089-0.366 0.234-0.736 0.38-1.127 0.423-1.14 1.255-1.971 0.554-5.215-0.115-0.531-0.342-0.746-0.654-0.867-0.152-0.056-0.328-0.088-0.512-0.088-0.012 0-0.024 0-0.036 0l0.002-0zM18.627 7.52h0.052c0.069 0.002 0.132 0.009 0.188 0.023 0.056 0.013 0.104 0.031 0.144 0.057s0.069 0.066 0.078 0.114l0 0.001-0.001 0.008c0 0.003 0 0.007 0 0.010 0 0.048-0.014 0.093-0.037 0.131l0.001-0.001c-0.032 0.060-0.071 0.111-0.115 0.156l0-0c-0.103 0.113-0.242 0.192-0.398 0.22l-0.004 0.001c-0.022 0.003-0.048 0.004-0.074 0.004-0.132 0-0.255-0.042-0.355-0.113l0.002 0.001c-0.052-0.035-0.096-0.076-0.135-0.122l-0.001-0.001c-0.033-0.036-0.056-0.081-0.065-0.131l-0-0.002c-0-0.005-0.001-0.010-0.001-0.016 0-0.045 0.017-0.086 0.045-0.118l-0 0c0.034-0.038 0.074-0.070 0.12-0.093l0.002-0.001c0.1-0.056 0.235-0.098 0.389-0.121 0.057-0.008 0.114-0.013 0.167-0.014zM10.481 7.695c0.055 0 0.114 0.005 0.173 0.014 0.159 0.022 0.301 0.065 0.409 0.127 0.054 0.029 0.1 0.066 0.138 0.11l0.001 0.001c0.036 0.041 0.057 0.094 0.057 0.153 0 0.008-0 0.017-0.001 0.025l0-0.001c-0.011 0.063-0.039 0.117-0.078 0.161l0-0c-0.043 0.052-0.092 0.097-0.147 0.134l-0.002 0.002c-0.107 0.077-0.241 0.123-0.385 0.123-0.029 0-0.057-0.002-0.085-0.005l0.003 0c-0.175-0.029-0.325-0.115-0.437-0.237l-0.001-0.001c-0.048-0.049-0.088-0.106-0.121-0.167l-0.002-0.004c-0.028-0.044-0.044-0.097-0.044-0.154 0-0.011 0.001-0.021 0.002-0.031l-0 0.001c0.016-0.112 0.108-0.171 0.199-0.203 0.082-0.027 0.176-0.043 0.275-0.043 0.016 0 0.032 0 0.047 0.001l-0.002-0zM19.919 15.344l-0.003 0.001c-0.153 0.055-0.279 0.078-0.385 0.125-0.109 0.043-0.195 0.121-0.248 0.22l-0.001 0.003c-0.066 0.12-0.122 0.332-0.105 0.694 0.044 0.031 0.095 0.056 0.15 0.072l0.004 0.001c0.178 0.054 0.477 0.090 0.81 0.084 0.665-0.007 1.482-0.163 1.917-0.365 0.376-0.177 0.699-0.391 0.987-0.645l-0.004 0.004h-0.001c-1.451 0.3-2.271 0.22-2.774 0.012-0.132-0.056-0.246-0.126-0.348-0.21l0.002 0.002zM11.553 15.442h-0.022c-0.055 0.005-0.135 0.024-0.291 0.196-0.363 0.406-0.49 0.661-0.789 0.9-0.299 0.238-0.688 0.365-1.464 0.524-0.246 0.050-0.386 0.105-0.48 0.15 0.030 0.025 0.027 0.031 0.073 0.055 0.114 0.063 0.259 0.118 0.377 0.148 0.333 0.083 0.881 0.18 1.453 0.083 0.572-0.098 1.167-0.372 1.674-1.083 0.088-0.123 0.097-0.304 0.025-0.499-0.073-0.195-0.232-0.362-0.345-0.409-0.062-0.031-0.134-0.053-0.209-0.062l-0.003-0z"></path>
</svg>
<svg id="brand-node-dot-js" width="25" height="25" viewBox="0 0 25 25" x="369" y="0">
<path fill="#393" d="M11.911 0.159l-9.76 5.656c-0.365 0.211-0.587 0.602-0.586 1.024v11.317c0 0.421 0.224 0.813 0.588 1.023l9.76 5.661c0.365 0.211 0.813 0.211 1.177 0l9.756-5.659c0.365-0.214 0.587-0.602 0.589-1.023v-11.319c0-0.421-0.225-0.813-0.59-1.025l-9.754-5.656c-0.365-0.211-0.815-0.211-1.177 0z"></path>
</svg>
<svg id="brand-gulp" width="25" height="25" viewBox="0 0 25 25" x="410" y="0">
<path fill="#da4648" d="M15.787 20.242l0.663-1.129s-1.504 0.616-4.021 0.616c-2.519 0-4-0.592-4-0.592l0.741 1.232 0.262 3.884c0 0.42 1.369 0.748 3.058 0.748 1.691 0 3.060-0.327 3.060-0.748l0.239-3.995v-0.017zM16.428 12.902c-0.801 0.048-1.201 0.941-1.603 1.88-0.149 0.344-0.656 1.809-0.987 1.628-0.331-0.18 0.43-1.384 0.645-2.101-0.247 0.181-1.151 0.884-1.384 0.224-0.373 0.327-1.176 0.5-1.085-0.343-0.199 0.359-0.647 0.857-1.186 0.64-0.701-0.266 0.411-2.511 0.688-2.403 0.277 0.126-0.055 0.625-0.142 0.827-0.194 0.436-0.415 0.998-0.266 1.107 0.25 0.202 0.942-0.732 0.957-0.749 0.129-0.172 0.499-1.28 0.795-1.153 0.297 0.14-0.741 1.605-0.354 1.902 0.079 0.062 0.399-0.031 0.593-0.249 0.125-0.125 0.081-0.438 0.499-1.435 0.421-0.999 0.796-2.246 1.082-2.152s0.051 0.732-0.053 0.982c-0.483 1.123-1.321 2.962-0.927 2.823 0.39-0.141 0.593-0.141 0.982-0.593s0.359-1.2 0.624-1.184c0.25 0.015 0.219 0.265 0.156 0.435 0.25-0.281 1.2-0.904 1.42-0.296 0.265 0.717-1.358 1.762-0.952 1.7 0.391-0.047 1.029-0.452 1.31-0.826l0.749-6.771s-0.765 0.625-5.584 0.625-5.504-0.608-5.504-0.608l0.639 6.177c0.344-0.967 1.154-2.931 2.419-2.854 0.577 0.031 1.357 1.155 0.685 1.186-0.281 0.016-0.313-0.561-0.64-0.64-0.249-0.048-0.577 0.141-0.795 0.359-0.421 0.421-1.358 2.090-1.233 2.918 0.156 1.060 1.466-0.36 1.684-0.781 0.155-0.295 0.265-1.185 0.592-1.092 0.344 0.094-0.030 1.015-0.281 1.809-0.281 0.905-0.421 1.855-0.762 1.746-0.344-0.108 0.218-1.278 0.185-1.481-0.326 0.311-0.92 1.063-1.699 0.686l0.39 3.853s1.061 0.826 4.243 0.826 4.29-0.826 4.29-0.826l0.499-4.461c-0.405 0.406-1.684 1.107-1.763 0.313-0.061-0.64 1.389-1.56 1.015-1.577l0.062-0.072zM18.069 0.697l-2.77 2.917-0.506 1.98c1.959 0.125 3.322 0.402 3.322 0.723 0 0.436-2.515 0.789-5.616 0.789s-5.615-0.357-5.615-0.795c0-0.436 2.515-0.796 5.616-0.796 0.441 0 0.879 0 1.317 0.017l0.584-2.371 2.943-3.12c0.071-0.094 0.292-0.016 0.494 0.156 0.202 0.155 0.311 0.358 0.249 0.452v0.031l-0.018 0.017zM14.075 6.733s-0.545 0-0.635-0.083c-0.023-0.026-0.037-0.060-0.037-0.094 0-0.060 0.041-0.095 0.094-0.115l0.046 0.078c-0.022 0.006-0.030 0.016-0.034 0.024 0 0.043 0.327 0.072 0.578 0.069 0.249-0.003 0.553-0.024 0.555-0.067 0-0.013-0.024-0.024-0.064-0.034l0.047-0.075c0.066 0.021 0.122 0.060 0.122 0.126 0 0.115-0.147 0.133-0.24 0.147-0.111 0.016-0.429 0.024-0.429 0.024h-0.002z"></path>
</svg>
<svg id="brand-jest" width="25" height="25" viewBox="0 0 25 25" x="451" y="0">
<path fill="#c21325" d="M23.178 12.313c-0.003-1.499-1.020-2.759-2.402-3.13l-0.023-0.005 3.113-9.177h-15.424l3.121 9.206c-1.361 0.406-2.336 1.645-2.337 3.112v0c0 1.086 0.542 2.049 1.368 2.642-0.345 0.483-0.716 0.907-1.125 1.292l-0.004 0.004c-0.747 0.712-1.628 1.291-2.6 1.695l-0.056 0.021c-0.869-0.586-1.245-1.621-0.905-2.548 1.331-0.423 2.279-1.648 2.279-3.094 0-1.785-1.443-3.232-3.226-3.24h-0.001c-1.79 0.002-3.24 1.453-3.243 3.242v0c0 0.883 0.361 1.694 0.941 2.273-0.050 0.101-0.101 0.203-0.152 0.311-0.484 0.999-1.034 2.128-1.245 3.395-0.42 2.533 0.268 4.567 1.926 5.718 0.851 0.607 1.912 0.97 3.058 0.97 0.004 0 0.007 0 0.011 0h-0.001c1.903 0 3.835-0.955 5.703-1.882 1.332-0.658 2.707-1.346 4.060-1.679 0.5-0.123 1.021-0.195 1.571-0.275 1.115-0.159 2.266-0.325 3.3-0.927 1.176-0.683 2.016-1.834 2.268-3.191l0.004-0.029c0.181-1.035 0-2.077-0.463-2.99 0.31-0.5 0.484-1.085 0.484-1.716zM21.767 12.313c0 1.005-0.818 1.823-1.823 1.823-1.006-0.003-1.821-0.819-1.821-1.826 0-0.578 0.268-1.093 0.687-1.427l0.004-0.003 0.007-0.007c0.058-0.044 0.123-0.088 0.187-0.13 0 0 0.008 0 0.008-0.007 0.029-0.015 0.057-0.036 0.086-0.052 0.007 0 0.015-0.006 0.022-0.006 0.029-0.015 0.066-0.029 0.101-0.044 0.036-0.015 0.073-0.028 0.102-0.043 0.007 0 0.014-0.007 0.021-0.007 0.029-0.007 0.058-0.022 0.087-0.029 0.007 0 0.021-0.007 0.029-0.007 0.035-0.007 0.065-0.015 0.101-0.021h0.007l0.108-0.023c0.007 0 0.021 0 0.029-0.007 0.029 0 0.057-0.007 0.086-0.007h0.036c0.036 0 0.073-0.007 0.116-0.007h0.094c0.029 0 0.052 0 0.080 0.007h0.015c0.057 0.007 0.116 0.015 0.174 0.029 0.836 0.184 1.452 0.917 1.454 1.795v0zM10.461 1.448h11.385l-2.614 7.708c-0.108 0.021-0.217 0.057-0.325 0.094l-2.75-5.609-2.758 5.573c-0.108-0.035-0.225-0.057-0.341-0.079l-2.598-7.688zM15.636 11.682c-0.141-0.693-0.489-1.288-0.975-1.735l-0.002-0.002 1.498-3.025 1.512 3.091c-0.448 0.448-0.774 1.021-0.904 1.672h-1.13zM12.010 10.539c0.035-0.007 0.065-0.015 0.101-0.021h0.021c0.030-0.008 0.058-0.008 0.088-0.016h0.029c0.029 0 0.051-0.007 0.079-0.007h0.282c0.029 0 0.051 0.007 0.073 0.007 0.015 0 0.021 0 0.036 0.007 0.028 0.007 0.050 0.007 0.079 0.015 0.007 0 0.015 0 0.029 0.007l0.101 0.021h0.007c0.029 0.008 0.058 0.016 0.086 0.030 0.007 0 0.015 0.007 0.029 0.007 0.022 0.007 0.051 0.015 0.073 0.028 0.007 0 0.015 0.007 0.021 0.007 0.029 0.015 0.058 0.022 0.087 0.036h0.007c0.036 0.014 0.067 0.031 0.095 0.052l-0.001-0.001h0.007c0.029 0.015 0.058 0.035 0.087 0.050 0.007 0 0.007 0.007 0.014 0.007 0.029 0.015 0.052 0.036 0.080 0.051l0.007 0.007c0.086 0.065 0.167 0.137 0.246 0.209l0.007 0.007c0.31 0.326 0.5 0.767 0.5 1.253 0 0.002 0 0.005-0 0.007v-0c-0.034 0.981-0.838 1.763-1.824 1.763s-1.79-0.782-1.824-1.76l-0-0.003c0-0.002 0-0.003 0-0.005 0-0.846 0.579-1.557 1.362-1.758l0.013-0.003zM4.888 10.487c1.006 0 1.824 0.819 1.824 1.824s-0.818 1.824-1.823 1.824-1.825-0.818-1.825-1.823 0.819-1.825 1.824-1.825zM21.724 16.764c-0.175 0.958-0.756 1.754-1.555 2.214l-0.016 0.008c-0.79 0.456-1.759 0.601-2.78 0.746-0.68 0.088-1.261 0.194-1.83 0.327l0.122-0.024c-1.505 0.37-2.952 1.094-4.356 1.789-1.796 0.89-3.49 1.729-5.059 1.729-0.007 0-0.015 0-0.024 0-0.834 0-1.605-0.269-2.231-0.724l0.011 0.008c-1.593-1.1-1.514-3.163-1.325-4.292 0.174-1.057 0.658-2.048 1.122-2.997 0.029-0.057 0.051-0.108 0.080-0.167 0.158 0.058 0.325 0.102 0.499 0.131-0.275 1.534 0.506 3.119 2.027 3.901l0.275 0.145 0.296-0.108c1.267-0.449 2.44-1.18 3.475-2.157 0.563-0.526 1.060-1.112 1.483-1.751l0.022-0.036c0.167 0.028 0.333 0.035 0.5 0.035 1.498-0.004 2.757-1.021 3.128-2.401l0.005-0.023h1.216c0.374 1.405 1.635 2.424 3.134 2.424 0 0 0.001 0 0.001 0h-0c0.6 0 1.156-0.167 1.635-0.448 0.187 0.542 0.246 1.107 0.145 1.672z"></path>
</svg>
<svg id="brand-redux" width="25" height="25" viewBox="0 0 25 25" x="492" y="0">
<path fill="#764abc" d="M17.326 17.192c0.905-0.078 1.607-0.875 1.561-1.827-0.048-0.952-0.828-1.717-1.779-1.717h-0.064c-0.982 0.032-1.748 0.858-1.717 1.843 0.031 0.499 0.235 0.905 0.515 1.201-1.092 2.123-2.73 3.683-5.213 4.995-1.67 0.873-3.433 1.202-5.15 0.968-1.435-0.202-2.558-0.844-3.246-1.873-1.029-1.561-1.123-3.246-0.266-4.931 0.626-1.218 1.561-2.107 2.186-2.545-0.156-0.405-0.344-1.092-0.438-1.606-4.621 3.309-4.151 7.834-2.747 9.973 1.046 1.56 3.184 2.558 5.525 2.558 0.624 0 1.28-0.046 1.92-0.202 4.058-0.78 7.132-3.215 8.896-6.804l0.015-0.032zM22.897 13.29c-2.418-2.841-5.977-4.401-10.035-4.401h-0.531c-0.264-0.577-0.872-0.936-1.559-0.936h-0.047c-0.982 0-1.748 0.844-1.716 1.826 0.031 0.935 0.827 1.717 1.779 1.717h0.077c0.703-0.031 1.311-0.469 1.56-1.093h0.578c2.405 0 4.682 0.702 6.758 2.075 1.591 1.046 2.731 2.419 3.371 4.058 0.56 1.342 0.53 2.653-0.047 3.747-0.89 1.716-2.389 2.622-4.37 2.622-1.249 0-2.466-0.391-3.091-0.671-0.374 0.31-0.999 0.826-1.452 1.139 1.373 0.623 2.763 0.982 4.104 0.982 3.044 0 5.305-1.716 6.165-3.371 0.935-1.873 0.858-5.025-1.53-7.725l-0.015 0.031zM6.76 17.752c0.030 0.936 0.826 1.717 1.779 1.717h0.063c0.999-0.031 1.764-0.857 1.717-1.842 0-0.936-0.811-1.716-1.764-1.716h-0.064c-0.063 0-0.155 0-0.234 0.030-1.295-2.185-1.842-4.527-1.638-7.053 0.124-1.904 0.749-3.559 1.872-4.932 0.936-1.171 2.7-1.749 3.902-1.779 3.371-0.064 4.776 4.136 4.884 5.806l1.56 0.468c-0.359-5.119-3.542-7.804-6.585-7.804-2.856 0-5.493 2.076-6.555 5.12-1.451 4.058-0.499 7.959 1.28 11.081-0.155 0.203-0.249 0.561-0.218 0.904z"></path>
</svg>
<svg id="brand-react" width="25" height="25" viewBox="0 0 25 25" x="533" y="0">
<path fill="#61dafb" d="M12.5 10.272c-1.231 0-2.228 0.998-2.228 2.228s0.998 2.228 2.228 2.228v0c1.231 0 2.228-0.998 2.228-2.228s-0.998-2.228-2.228-2.228v0zM6.258 16.932l-0.492-0.125c-3.665-0.926-5.767-2.498-5.767-4.311s2.102-3.385 5.767-4.311l0.492-0.124 0.139 0.488c0.425 1.453 0.908 2.69 1.484 3.873l-0.064-0.146 0.105 0.222-0.105 0.222c-0.513 1.039-0.996 2.275-1.376 3.555l-0.044 0.172-0.139 0.486zM5.539 9.323c-2.785 0.782-4.495 1.979-4.495 3.173 0 1.193 1.709 2.39 4.495 3.173 0.4-1.266 0.817-2.316 1.299-3.331l-0.067 0.158c-0.415-0.858-0.833-1.909-1.181-2.99l-0.051-0.183zM18.742 16.932l-0.139-0.489c-0.425-1.452-0.908-2.688-1.484-3.87l0.063 0.144-0.105-0.222 0.105-0.222c0.512-1.038 0.996-2.274 1.377-3.554l0.044-0.173 0.139-0.488 0.493 0.124c3.664 0.926 5.766 2.498 5.766 4.312s-2.102 3.385-5.766 4.311l-0.493 0.125zM18.23 12.496c0.5 1.082 0.914 2.146 1.231 3.173 2.786-0.783 4.495-1.98 4.495-3.173 0-1.194-1.709-2.39-4.495-3.173-0.399 1.265-0.816 2.315-1.298 3.329l0.067-0.156zM5.531 9.318l-0.139-0.486c-1.030-3.631-0.718-6.233 0.857-7.142 1.545-0.892 4.025 0.161 6.624 2.829l0.354 0.364-0.354 0.364c-0.895 0.93-1.724 1.939-2.47 3.010l-0.053 0.080-0.141 0.201-0.245 0.021c-1.465 0.118-2.809 0.343-4.113 0.672l0.17-0.036-0.492 0.124zM7.506 2.411c-0.279 0-0.526 0.060-0.734 0.18-1.035 0.597-1.219 2.672-0.505 5.472 0.946-0.223 2.094-0.407 3.265-0.514l0.102-0.008c0.698-0.988 1.4-1.852 2.153-2.667l-0.016 0.017c-1.625-1.582-3.164-2.48-4.266-2.48zM17.495 23.622c-0.001 0-0.001 0 0 0-1.484 0-3.391-1.118-5.369-3.149l-0.354-0.364 0.354-0.364c0.895-0.93 1.724-1.939 2.469-3.011l0.053-0.080 0.141-0.201 0.244-0.021c1.465-0.117 2.81-0.342 4.115-0.671l-0.17 0.036 0.492-0.124 0.14 0.487c1.028 3.629 0.717 6.232-0.858 7.14-0.351 0.202-0.772 0.321-1.22 0.321-0.012 0-0.025-0-0.037-0l0.002 0zM13.228 20.1c1.625 1.582 3.164 2.48 4.266 2.48h0.001c0.278 0 0.526-0.060 0.733-0.18 1.035-0.597 1.22-2.673 0.505-5.473-0.946 0.223-2.096 0.407-3.267 0.514l-0.102 0.007c-0.698 0.988-1.399 1.853-2.152 2.668l0.016-0.017zM19.469 9.318l-0.492-0.124c-1.135-0.294-2.481-0.519-3.858-0.63l-0.086-0.006-0.244-0.021-0.141-0.201c-0.798-1.152-1.626-2.161-2.529-3.098l0.007 0.008-0.354-0.364 0.354-0.364c2.598-2.667 5.077-3.72 6.624-2.829 1.575 0.908 1.887 3.51 0.858 7.141l-0.14 0.488zM15.365 7.542c1.19 0.108 2.32 0.284 3.369 0.522 0.715-2.8 0.53-4.875-0.505-5.472-1.029-0.595-2.964 0.317-5 2.3 0.737 0.798 1.438 1.662 2.082 2.57l0.054 0.080zM7.506 23.622c-0.011 0-0.023 0-0.036 0-0.449 0-0.869-0.119-1.232-0.327l0.012 0.006c-1.575-0.907-1.888-3.509-0.857-7.14l0.138-0.487 0.492 0.124c1.203 0.303 2.53 0.517 3.943 0.634l0.245 0.021 0.14 0.201c0.799 1.152 1.628 2.162 2.53 3.099l-0.007-0.008 0.354 0.364-0.354 0.364c-1.977 2.031-3.883 3.149-5.366 3.149zM6.267 16.927c-0.715 2.8-0.53 4.876 0.505 5.473 1.028 0.586 2.961-0.318 5-2.3-0.737-0.798-1.438-1.663-2.083-2.571l-0.054-0.080c-1.273-0.114-2.421-0.299-3.543-0.556l0.175 0.034zM12.5 17.581c-0.857 0-1.739-0.037-2.621-0.11l-0.245-0.021-0.141-0.201c-0.425-0.6-0.89-1.321-1.326-2.062l-0.081-0.148c-0.353-0.592-0.758-1.353-1.132-2.131l-0.082-0.19-0.104-0.222 0.104-0.222c0.456-0.968 0.861-1.728 1.295-2.47l-0.081 0.149c0.431-0.746 0.905-1.49 1.406-2.21l0.141-0.201 0.245-0.021c0.785-0.071 1.699-0.111 2.621-0.111s1.836 0.040 2.738 0.119l-0.117-0.008 0.244 0.021 0.14 0.201c0.919 1.301 1.793 2.787 2.541 4.344l0.081 0.188 0.105 0.222-0.105 0.222c-0.826 1.743-1.7 3.229-2.687 4.629l0.065-0.097-0.14 0.201-0.244 0.021c-0.882 0.073-1.765 0.11-2.622 0.11zM10.211 16.452c1.542 0.116 3.035 0.116 4.578 0 0.784-1.129 1.546-2.425 2.209-3.778l0.079-0.178c-0.74-1.53-1.501-2.826-2.353-4.055l0.065 0.099c-0.685-0.055-1.483-0.087-2.289-0.087s-1.603 0.031-2.393 0.093l0.104-0.007c-0.788 1.131-1.55 2.427-2.211 3.781l-0.077 0.175c0.743 1.531 1.505 2.827 2.355 4.057l-0.066-0.101z"></path>
</svg>
<svg id="brand-webpack" width="25" height="25" viewBox="0 0 25 25" x="574" y="0">
<path fill="#8dd6f9" d="M21.891 18.875l-9.026 5.083v-3.959l5.624-3.080 3.402 1.956zM22.509 18.319v-10.631l-3.303 1.898v6.833l3.303 1.9zM3.048 18.875l9.026 5.083v-3.959l-5.624-3.080-3.402 1.956zM2.43 18.319v-10.631l3.303 1.898v6.833l-3.303 1.9zM2.817 7l9.257-5.214v3.828l-5.975 3.273-3.281-1.887zM22.122 7l-9.257-5.214v3.828l5.975 3.273 3.281-1.887zM12.073 19.099l-5.548-3.037v-6.018l5.548 3.19v5.865zM12.866 19.099l5.548-3.037v-6.018l-5.548 3.19v5.865zM6.901 9.347l5.569-3.050 5.57 3.050-5.57 3.202-5.569-3.202z"></path>
</svg>
<svg id="brand-csswizardry" width="25" height="25" viewBox="0 0 25 25" x="615" y="0">
<path fill="#f43059" d="M0.031 17.113v-15.948c0-0.644 0.521-1.165 1.164-1.165h22.555c0.65 0 1.167 0.521 1.167 1.167v15.375c-0.698-0.427-1.521-0.642-2.455-0.642-1.306 0-2.297 0.312-2.973 0.933-0.677 0.623-1.010 1.383-1.010 2.318 0 1.010 0.344 1.76 1.042 2.24 0.406 0.297 1.156 0.563 2.229 0.794l1.094 0.25c0.656 0.139 1.115 0.313 1.417 0.479 0.292 0.191 0.448 0.455 0.448 0.797 0 0.59-0.302 0.995-0.906 1.196l-0.031 0.017h-2.302c-0.299-0.108-0.531-0.265-0.719-0.469-0.188-0.233-0.313-0.573-0.375-1.055h-2.063c0 0.59 0.107 1.089 0.344 1.542h-1.75c0.198-0.406 0.313-0.857 0.313-1.372 0-0.917-0.313-1.615-0.923-2.1-0.39-0.309-0.979-0.557-1.758-0.747l-1.792-0.419c-0.688-0.146-1.135-0.292-1.354-0.417-0.323-0.187-0.479-0.469-0.479-0.823 0-0.396 0.167-0.708 0.49-0.927 0.344-0.219 0.781-0.323 1.344-0.323 0.51 0 0.917 0.094 1.26 0.271 0.515 0.267 0.781 0.719 0.823 1.341h2.083c-0.031-1.090-0.432-1.93-1.198-2.504-0.775-0.573-1.693-0.87-2.781-0.87-1.307 0-2.286 0.313-2.972 0.917-0.667 0.607-1.010 1.385-1.010 2.302 0 1.010 0.344 1.758 1.042 2.24 0.419 0.281 1.167 0.545 2.24 0.792l1.089 0.25c0.635 0.141 1.104 0.297 1.417 0.484 0.292 0.188 0.448 0.448 0.448 0.792 0 0.594-0.313 0.979-0.917 1.198h-2.333c-0.296-0.11-0.542-0.267-0.719-0.484-0.188-0.229-0.323-0.588-0.385-1.056h-2.101c0 0.581 0.109 1.094 0.333 1.542h-2.177c0.344-0.542 0.576-1.167 0.691-1.865h-2.139c-0.146 0.531-0.325 0.935-0.547 1.198-0.271 0.344-0.625 0.563-1.063 0.672h-1.278c-0.469-0.109-0.872-0.373-1.198-0.792-0.483-0.581-0.717-1.452-0.717-2.604 0-1.167 0.24-2.052 0.688-2.688 0.469-0.639 1.073-0.948 1.865-0.948 0.781 0 1.354 0.219 1.76 0.671 0.219 0.25 0.406 0.625 0.542 1.121h2.167c-0.031-0.644-0.271-1.292-0.715-1.938-0.804-1.146-2.077-1.719-3.817-1.719-1.208 0-2.223 0.375-3.031 1.104l-0.052-0.115zM24.921 20.9v-1.619h-0.537c-0.036-0.622-0.313-1.065-0.816-1.327-0.326-0.171-0.747-0.258-1.243-0.258-0.562 0-0.995 0.115-1.323 0.335-0.325 0.224-0.498 0.54-0.498 0.94 0 0.37 0.173 0.646 0.497 0.828 0.229 0.109 0.677 0.265 1.365 0.421l1.792 0.427c0.313 0.062 0.583 0.156 0.833 0.24l-0.052 0.031z"></path>
</svg>
<svg id="brand-slides" width="25" height="25" viewBox="0 0 25 25" x="0" y="41">
<path fill="#e4637c" d="M0 0v25h25v-25h-25zM14.767 16.452c-0.671 0.608-1.469 0.906-2.406 0.906s-1.733-0.143-2.421-0.423c-0.673-0.281-1.017-0.547-1.017-0.813l-0.079 0.099c0-0.135 0.083-0.337 0.254-0.609 0.17-0.271 0.323-0.406 0.458-0.406 0.015 0 0.125 0.062 0.327 0.192 0.203 0.13 0.492 0.257 0.872 0.387 0.379 0.128 0.838 0.193 1.372 0.193 0.547 0 0.984-0.153 1.328-0.458 0.344-0.304 0.516-0.719 0.516-1.24s-0.156-0.927-0.454-1.219c-0.297-0.292-0.906-0.567-1.813-0.823-0.906-0.26-1.563-0.588-1.969-0.985-0.406-0.402-0.61-1.008-0.61-1.821s0.313-1.495 0.937-2.044c0.625-0.563 1.438-0.828 2.438-0.828 0.703 0 1.313 0.077 1.859 0.265 0.546 0.172 0.812 0.375 0.812 0.578 0 0.171-0.078 0.406-0.235 0.671-0.156 0.281-0.297 0.406-0.406 0.406-0.018 0-0.094-0.047-0.268-0.125-0.453-0.25-0.969-0.375-1.546-0.375s-1.017 0.109-1.344 0.344c-0.313 0.234-0.469 0.547-0.469 0.922s0.125 0.671 0.358 0.89 0.641 0.406 1.219 0.594c1.281 0.391 2.141 0.813 2.594 1.281 0.454 0.469 0.687 1.173 0.687 2.109 0.002 0.937-0.325 1.719-0.998 2.327z"></path>
</svg>
<svg id="brand-hackhands" width="25" height="25" viewBox="0 0 25 25" x="41" y="41">
<path fill="#00acbd" d="M5.521 18.365h6.615c0.521 0 0.927-0.417 0.927-0.938s-0.417-0.927-0.938-0.927h-6.604c-0.521 0-0.927 0.417-0.927 0.927 0 0.521 0.417 0.938 0.938 0.938zM17.271 14.344c0-0.521-0.417-0.938-0.938-0.938h-9.521c-0.521 0-0.927 0.417-0.927 0.938s0.417 0.937 0.937 0.937h9.531c0.521 0 0.938-0.417 0.938-0.937zM19.208 11.25c-0.017-0.503-0.423-0.906-0.926-0.917l-0.001-0h-11.479c-0.521 0-0.927 0.406-0.927 0.927s0.417 0.927 0.938 0.927h11.469c0.521 0 0.927-0.417 0.927-0.938zM5.875 8.146c0 0.521 0.417 0.927 0.937 0.927h9.896c0.51 0 0.917-0.417 0.917-0.938 0-0.51-0.417-0.917-0.927-0.917h-9.896c-0.521 0-0.927 0.406-0.927 0.927zM8.25 4.125h-2.729c-0.521 0-0.927 0.417-0.927 0.938s0.417 0.927 0.938 0.927h2.75c0.521 0 0.937-0.417 0.937-0.938-0.023-0.517-0.447-0.927-0.968-0.927-0 0-0.001 0-0.001 0h0zM23.823 21.667c0-0.003 0-0.007 0-0.010 0-0.535-0.434-0.969-0.969-0.969-0.004 0-0.007 0-0.011 0h-17.947c-0.99 0-1.802-0.833-1.802-1.813v-15.156c0-0.99 0.812-1.802 1.802-1.802h15.156c0.99 0 1.813 0.792 1.813 1.802v12.292c0 0.521 0.437 0.958 0.937 0.958 0.531 0 0.969-0.438 0.969-0.958v-12.292c0-2.052-1.667-3.719-3.719-3.719h-15.156c-2.054 0-3.719 1.665-3.719 3.719v0 15.156c0 2.052 1.667 3.719 3.719 3.719h16.354l2.573 2.406v-3.333z"></path>
</svg>
<svg id="brand-bootstrap" width="25" height="25" viewBox="0 0 25 25" x="82" y="41">
<path fill="#563d7c" d="M20.833 0h-16.667c-2.299 0.006-4.16 1.868-4.167 4.167v16.667c0 2.292 1.875 4.167 4.167 4.167h16.667c2.292 0 4.167-1.875 4.167-4.167v-16.667c0-2.292-1.875-4.167-4.167-4.167zM18.555 17.557c-0.208 0.502-0.539 0.945-0.961 1.285-0.438 0.354-0.992 0.646-1.674 0.854-0.681 0.211-1.492 0.318-2.43 0.318h-6.7v-14.583h7.085c1.31 0 2.36 0.295 3.146 0.896 0.792 0.604 1.185 1.504 1.185 2.719 0 0.734-0.179 1.365-0.54 1.885-0.358 0.518-0.875 0.923-1.542 1.204v0.048c0.89 0.188 1.578 0.609 2.031 1.266s0.685 1.485 0.685 2.486c0 0.56-0.108 1.094-0.313 1.592l0.026 0.028zM15.664 13.964c-0.427-0.391-1.027-0.581-1.802-0.581h-4.502v4.55h4.515c0.771 0 1.375-0.2 1.802-0.604 0.427-0.401 0.646-0.973 0.646-1.708-0.007-0.719-0.219-1.275-0.646-1.656h-0.018zM15.039 11.023c0.412-0.35 0.615-0.851 0.615-1.504 0-0.733-0.182-1.254-0.552-1.552-0.367-0.297-0.896-0.451-1.592-0.451h-4.167v4.024h4.167c0.607 0 1.125-0.177 1.525-0.517z"></path>
</svg>
<svg id="brand-jquery" width="25" height="25" viewBox="0 0 25 25" x="123" y="41">
<path fill="#0769ad" d="M1.598 6.119c-2.211 3.177-1.938 7.309-0.247 10.683 0.039 0.082 0.081 0.16 0.123 0.239 0.024 0.054 0.051 0.104 0.080 0.155 0.014 0.029 0.032 0.059 0.049 0.086 0.027 0.054 0.056 0.106 0.084 0.158l0.164 0.276c0.030 0.051 0.059 0.101 0.094 0.152 0.057 0.098 0.125 0.195 0.184 0.293 0.027 0.041 0.052 0.081 0.082 0.122 0.116 0.181 0.222 0.332 0.334 0.478l-0.012-0.016c0.081 0.111 0.163 0.22 0.25 0.328 0.028 0.040 0.059 0.079 0.089 0.119l0.23 0.28c0.028 0.032 0.056 0.070 0.086 0.103 0.102 0.123 0.21 0.243 0.319 0.364 0 0.002 0.003 0.004 0.005 0.007 0.135 0.169 0.279 0.319 0.437 0.455l0.004 0.004c0.083 0.085 0.167 0.171 0.255 0.254l0.105 0.101c0.116 0.108 0.231 0.217 0.353 0.321 0.002 0 0.003 0.002 0.005 0.003l0.059 0.052c0.106 0.093 0.214 0.185 0.323 0.271l0.13 0.109c0.089 0.071 0.18 0.139 0.271 0.208l0.142 0.108c0.097 0.073 0.2 0.145 0.299 0.216 0.036 0.026 0.073 0.052 0.11 0.076l0.030 0.024 0.293 0.193 0.125 0.083c0.153 0.098 0.305 0.191 0.456 0.282 0.044 0.022 0.088 0.046 0.128 0.071 0.112 0.065 0.229 0.13 0.343 0.191 0.063 0.035 0.127 0.066 0.192 0.098 0.078 0.044 0.159 0.086 0.243 0.13 0.023 0.007 0.042 0.015 0.060 0.025l-0.002-0.001c0.034 0.016 0.067 0.032 0.1 0.049 0.125 0.063 0.255 0.122 0.391 0.181 0.025 0.010 0.052 0.021 0.079 0.035 0.15 0.066 0.3 0.128 0.455 0.19 0.035 0.010 0.073 0.028 0.109 0.042 0.141 0.053 0.285 0.107 0.428 0.158l0.052 0.019c0.159 0.054 0.317 0.106 0.478 0.156 0.037 0.010 0.076 0.024 0.116 0.034 0.166 0.050 0.326 0.109 0.493 0.142 10.688 1.948 13.794-6.426 13.794-6.426-2.609 3.398-7.24 4.294-11.625 3.297-0.162-0.037-0.325-0.090-0.489-0.137-0.298-0.086-0.495-0.15-0.689-0.219l0.099 0.030-0.065-0.025c-0.142-0.048-0.278-0.101-0.417-0.154-0.026-0.012-0.064-0.026-0.103-0.039l-0.012-0.003c-0.153-0.061-0.302-0.125-0.45-0.191-0.032-0.010-0.059-0.025-0.092-0.038-0.273-0.121-0.397-0.18-0.52-0.241l0.144 0.064c-0.039-0.017-0.073-0.034-0.11-0.054-0.098-0.046-0.196-0.098-0.292-0.148-0.089-0.042-0.153-0.076-0.216-0.111l0.021 0.011c-0.118-0.063-0.235-0.13-0.353-0.195-0.035-0.025-0.076-0.046-0.117-0.069-0.225-0.132-0.374-0.225-0.522-0.32l0.065 0.039c-0.050-0.031-0.090-0.058-0.129-0.087l0.006 0.004c-0.135-0.083-0.241-0.154-0.344-0.228l0.019 0.013c-0.036-0.024-0.070-0.050-0.107-0.076-0.133-0.092-0.233-0.165-0.331-0.239l0.025 0.018c-0.044-0.035-0.091-0.069-0.138-0.104-0.092-0.072-0.184-0.141-0.276-0.217l-0.123-0.098c-0.136-0.11-0.249-0.205-0.36-0.303l0.012 0.010c-0.012-0.011-0.024-0.022-0.038-0.031l-0.001-0.001-0.361-0.329-0.104-0.098c-0.085-0.086-0.173-0.17-0.26-0.255l-0.101-0.104c-0.108-0.107-0.213-0.217-0.315-0.329l-0.007-0.007-0.016-0.017c-0.11-0.121-0.218-0.244-0.326-0.369-0.028-0.032-0.054-0.067-0.083-0.101l-0.235-0.289c-0.082-0.103-0.198-0.254-0.312-0.408l-0.042-0.059c-2.432-3.321-3.313-7.904-1.366-11.664zM8.459 3.443c-1.603 2.301-1.513 5.378-0.265 7.811 0.231 0.456 0.465 0.842 0.725 1.209l-0.020-0.030c0.24 0.344 0.504 0.75 0.825 1.027 0.111 0.127 0.232 0.25 0.358 0.374l0.094 0.094c0.119 0.115 0.241 0.227 0.365 0.339l0.016 0.014c0.125 0.11 0.266 0.227 0.409 0.34l0.022 0.017c0.035 0.024 0.066 0.052 0.1 0.076 0.146 0.112 0.293 0.221 0.445 0.328l0.016 0.009c0.065 0.047 0.133 0.090 0.206 0.135 0.029 0.019 0.063 0.044 0.094 0.062 0.11 0.071 0.219 0.137 0.33 0.205 0.018 0.007 0.033 0.017 0.050 0.024 0.094 0.057 0.196 0.112 0.294 0.164 0.034 0.021 0.068 0.036 0.103 0.056 0.070 0.034 0.139 0.071 0.205 0.106l0.033 0.015c0.141 0.069 0.284 0.133 0.425 0.198 0.035 0.014 0.066 0.025 0.096 0.040 0.116 0.050 0.233 0.098 0.349 0.143 0.052 0.018 0.101 0.039 0.15 0.054 0.106 0.040 0.218 0.076 0.323 0.113l0.146 0.047c0.152 0.047 0.306 0.108 0.467 0.134 8.25 1.368 10.16-4.986 10.16-4.986-1.72 2.475-5.048 3.654-8.595 2.733-0.216-0.055-0.372-0.102-0.526-0.152l0.059 0.017c-0.050-0.014-0.094-0.029-0.142-0.044-0.108-0.037-0.22-0.074-0.325-0.114l-0.15-0.056c-0.117-0.047-0.235-0.091-0.349-0.141-0.035-0.016-0.068-0.026-0.095-0.042-0.146-0.066-0.293-0.13-0.434-0.2l-0.215-0.111-0.124-0.062c-0.096-0.050-0.184-0.102-0.276-0.156-0.026-0.012-0.047-0.024-0.067-0.037l0.003 0.002c-0.11-0.069-0.225-0.135-0.33-0.206-0.035-0.020-0.068-0.044-0.101-0.065l-0.217-0.142c-0.15-0.104-0.297-0.217-0.445-0.325-0.033-0.030-0.066-0.055-0.098-0.082-1.559-1.226-2.79-2.902-3.373-4.8-0.615-1.973-0.479-4.185 0.582-5.981zM14.229 1.442c-0.946 1.388-1.036 3.11-0.385 4.641 0.692 1.625 2.106 2.901 3.754 3.505 0.068 0.026 0.133 0.048 0.203 0.073l0.092 0.028c0.096 0.030 0.193 0.066 0.292 0.087 4.558 0.879 5.792-2.341 6.124-2.814-1.085 1.558-2.905 1.932-5.138 1.39-0.218-0.055-0.398-0.112-0.572-0.178l0.035 0.012c-0.264-0.093-0.476-0.182-0.682-0.282l0.039 0.017c-0.43-0.21-0.799-0.439-1.142-0.7l0.017 0.012c-2-1.515-3.239-4.406-1.934-6.761z"></path>
</svg>
<svg id="brand-sass" width="25" height="25" viewBox="0 0 25 25" x="164" y="41">
<path fill="#c69" d="M12.5 0c6.903 0 12.5 5.597 12.5 12.5s-5.597 12.5-12.5 12.5-12.5-5.597-12.5-12.5 5.597-12.5 12.5-12.5zM10.016 16.665c0.182 0.672 0.162 1.3-0.025 1.867l-0.068 0.187c-0.025 0.064-0.054 0.125-0.081 0.183-0.146 0.302-0.34 0.583-0.578 0.844-0.727 0.791-1.742 1.091-2.177 0.839-0.469-0.273-0.235-1.391 0.608-2.281 0.907-0.956 2.208-1.572 2.208-1.572v-0.003l0.112-0.064zM20.34 5.351c-0.565-2.222-4.247-2.952-7.731-1.714-2.072 0.736-4.317 1.894-5.93 3.403-1.92 1.793-2.225 3.355-2.099 4.008 0.445 2.303 3.601 3.809 4.899 4.927v0.006c-0.382 0.187-3.183 1.593-3.84 3.047-0.703 1.531 0.109 2.626 0.641 2.766 1.641 0.454 3.328-0.375 4.234-1.718 0.875-1.314 0.798-3.001 0.421-3.829 0.517-0.141 1.125-0.203 1.906-0.108 2.189 0.25 2.626 1.625 2.531 2.188-0.094 0.561-0.545 0.89-0.702 0.983-0.156 0.095-0.203 0.125-0.189 0.189 0.016 0.094 0.095 0.094 0.219 0.078 0.172-0.031 1.142-0.469 1.189-1.532 0.047-1.344-1.235-2.843-3.516-2.813-0.938 0.017-1.532 0.095-1.953 0.267-0.031-0.047-0.064-0.078-0.109-0.109-1.406-1.516-4.016-2.578-3.906-4.594 0.031-0.734 0.297-2.671 5-5.015 3.859-1.923 6.939-1.391 7.47-0.219 0.764 1.671-1.642 4.781-5.657 5.233-1.531 0.172-2.328-0.421-2.532-0.641-0.218-0.234-0.249-0.25-0.327-0.202-0.125 0.063-0.047 0.266 0 0.391 0.125 0.313 0.609 0.859 1.454 1.141 0.733 0.234 2.531 0.374 4.687-0.469 2.421-0.936 4.311-3.547 3.765-5.734l0.076 0.070z"></path>
</svg>
<svg id="brand-javascript" width="25" height="25" viewBox="0 0 25 25" x="205" y="41">
<path fill="#f7df1e" d="M0 0h25v25h-25v-25zM22.952 19.037c-0.182-1.141-0.925-2.099-3.128-2.993-0.767-0.359-1.619-0.609-1.872-1.188-0.095-0.344-0.109-0.531-0.048-0.734 0.156-0.673 0.953-0.875 1.578-0.688 0.406 0.125 0.781 0.438 1.017 0.938 1.077-0.704 1.077-0.704 1.828-1.172-0.281-0.438-0.421-0.626-0.61-0.813-0.656-0.734-1.53-1.109-2.952-1.077l-0.734 0.093c-0.704 0.172-1.375 0.547-1.781 1.047-1.188 1.345-0.845 3.689 0.593 4.657 1.422 1.063 3.501 1.296 3.767 2.297 0.25 1.219-0.906 1.609-2.048 1.469-0.845-0.187-1.313-0.61-1.828-1.392l-1.906 1.095c0.219 0.5 0.469 0.718 0.844 1.155 1.813 1.829 6.344 1.735 7.157-1.046 0.030-0.094 0.25-0.734 0.077-1.719l0.048 0.070zM13.595 11.491h-2.342c0 2.019-0.009 4.025-0.009 6.047 0 1.283 0.066 2.461-0.144 2.824-0.344 0.718-1.229 0.626-1.631 0.5-0.413-0.204-0.622-0.485-0.865-0.891-0.066-0.109-0.115-0.204-0.132-0.204l-1.901 1.172c0.318 0.656 0.781 1.221 1.379 1.58 0.891 0.531 2.088 0.703 3.341 0.422 0.816-0.235 1.519-0.72 1.886-1.47 0.531-0.969 0.419-2.156 0.414-3.485 0.012-2.14 0-4.28 0-6.436l0.004-0.058z"></path>
</svg>
<svg id="brand-html5" width="25" height="25" viewBox="0 0 25 25" x="246" y="41">
<path fill="#e34f26" d="M1.563 0h21.875l-1.99 22.461-8.972 2.539-8.921-2.54-1.993-22.46zM8.886 10.156l-0.242-2.831 10.478 0.003 0.24-2.731-13.725-0.003 0.727 8.344h9.506l-0.34 3.569-3.031 0.837-3.078-0.844-0.196-2.198h-2.718l0.344 4.345 5.648 1.51 5.603-1.503 0.775-8.497h-9.992z"></path>
</svg>
<svg id="brand-python" width="25" height="25" viewBox="0 0 25 25" x="287" y="41">
<path fill="#3776ab" d="M14.906 0.188l0.938 0.208 0.76 0.271 0.615 0.313 0.469 0.333 0.354 0.354 0.26 0.354 0.167 0.344 0.104 0.313 0.042 0.271 0.021 0.208-0.010 0.135v5.563l-0.052 0.656-0.135 0.573-0.219 0.479-0.271 0.396-0.313 0.323-0.344 0.26-0.365 0.198-0.365 0.146-0.344 0.104-0.312 0.073-0.271 0.042-0.219 0.021h-6.219l-0.719 0.052-0.615 0.146-0.521 0.229-0.427 0.281-0.344 0.333-0.281 0.365-0.208 0.375-0.156 0.385-0.104 0.365-0.073 0.333-0.042 0.281-0.021 0.219v3.188h-2.323l-0.219-0.031-0.292-0.073-0.333-0.125-0.365-0.188-0.375-0.271-0.375-0.375-0.365-0.479-0.333-0.615-0.292-0.76-0.219-0.917-0.146-1.094-0.052-1.281 0.062-1.271 0.167-1.083 0.25-0.906 0.333-0.74 0.375-0.594 0.417-0.458 0.438-0.344 0.438-0.25 0.417-0.167 0.375-0.104 0.333-0.052 0.25-0.010h0.167l0.063 0.010h8.5v-0.865h-6.083l-0.010-2.865-0.021-0.385 0.052-0.354 0.115-0.323 0.177-0.292 0.26-0.271 0.323-0.24 0.396-0.208 0.458-0.188 0.531-0.156 0.604-0.125 0.667-0.104 0.74-0.063 0.802-0.042 0.875-0.021 1.323 0.052 1.115 0.135zM8.344 2.25l-0.24 0.344-0.083 0.427 0.083 0.427 0.24 0.354 0.344 0.229 0.427 0.094 0.427-0.094 0.344-0.229 0.24-0.354 0.083-0.427-0.083-0.427-0.24-0.344-0.344-0.229-0.427-0.094-0.427 0.094-0.344 0.229zM21.979 6.365l0.292 0.063 0.333 0.125 0.365 0.188 0.375 0.281 0.375 0.365 0.365 0.49 0.333 0.615 0.292 0.76 0.219 0.917 0.146 1.083 0.052 1.281-0.062 1.281-0.167 1.083-0.25 0.896-0.333 0.74-0.375 0.594-0.417 0.469-0.438 0.344-0.437 0.25-0.417 0.167-0.375 0.094-0.333 0.052-0.25 0.021-0.167-0.010h-8.563v0.854h6.083l0.010 2.875 0.021 0.375-0.052 0.354-0.115 0.323-0.177 0.302-0.26 0.26-0.323 0.25-0.396 0.208-0.458 0.177-0.531 0.156-0.604 0.135-0.667 0.094-0.74 0.073-0.802 0.042-0.875 0.010-1.323-0.042-1.115-0.146-0.938-0.208-0.76-0.26-0.615-0.312-0.469-0.344-0.354-0.354-0.26-0.354-0.167-0.344-0.104-0.312-0.042-0.26-0.021-0.208 0.010-0.135v-5.563l0.052-0.667 0.135-0.562 0.219-0.479 0.271-0.396 0.313-0.333 0.344-0.25 0.365-0.208 0.365-0.146 0.344-0.104 0.313-0.062 0.271-0.042 0.219-0.021 0.135-0.010h6.083l0.719-0.052 0.615-0.146 0.521-0.219 0.427-0.292 0.344-0.333 0.281-0.365 0.208-0.375 0.156-0.375 0.104-0.365 0.073-0.333 0.042-0.292 0.021-0.219v-3.188h2.177l0.146 0.010 0.219 0.031zM15.24 21.208l-0.24 0.344-0.083 0.427 0.083 0.427 0.24 0.344 0.344 0.24 0.427 0.083 0.427-0.083 0.344-0.24 0.24-0.344 0.083-0.427-0.083-0.427-0.24-0.344-0.344-0.24-0.427-0.083-0.427 0.083-0.344 0.24z"></path>
</svg>
<svg id="brand-rollup-dot-js" width="25" height="25" viewBox="0 0 25 25" x="328" y="41">
<path fill="#ec4a3f" d="M3.562 0c-0.212 0.001-0.384 0.173-0.384 0.385 0 0 0 0 0 0v0 20.329c0.601-1.55 1.622-3.768 3.269-6.802 5.937-10.917 6.716-12.018 9.808-12.018 1.625 0 3.265 0.733 4.325 2.036-1.465-2.342-4.014-3.887-6.926-3.931l-0.006-0zM16.813 2.65c-1.24 0.010-2.351 0.485-2.81 1.56-1.007 2.35 1.692 4.966 2.872 4.758 1.502-0.266-0.266-3.711-0.266-3.711 2.297 4.329 1.768 3.004-2.385 6.979s-8.394 12.368-9.012 12.72c-0.024 0.016-0.051 0.031-0.080 0.044l-0.003 0.001h16.289c0.213-0.003 0.384-0.176 0.384-0.389 0-0.063-0.015-0.122-0.041-0.174l0.001 0.002-4.258-8.429c-0.026-0.051-0.042-0.111-0.042-0.175 0-0.142 0.076-0.265 0.19-0.332l0.002-0.001c2.511-1.457 4.172-4.132 4.172-7.196 0-0.002 0-0.004 0-0.006v0c0-1.484-0.389-2.876-1.073-4.083-0.966-0.992-2.531-1.579-3.936-1.569z"></path>
</svg>
</svg>
